<svg xmlns="http://www.w3.org/2000/svg" width="400.30301" height="271.896" viewBox="0 0 105.9135 71.939151"><path d="M54.258 0c-19.865 0-35.97 16.104-35.97 35.97s16.105 35.97 35.97 35.97c19.866 0 35.97-16.104 35.97-35.97S74.124 0 54.258 0" style="fill:#570616;fill-opacity:1;fill-rule:nonzero;stroke:none;stroke-width:.360738"/><path d="M54.258 70.624c-19.139 0-34.653-15.515-34.653-34.654 0-19.139 15.514-34.654 34.653-34.654 19.14 0 34.654 15.515 34.654 34.654 0 19.139-15.515 34.654-34.654 34.654" style="fill:#7e0823;fill-opacity:1;fill-rule:nonzero;stroke:none;stroke-width:.360738"/><path d="m34.639 16.089-.314-.24-.009.01c.062.205.072.38.03.524-.042.144-.14.296-.294.456a1.26 1.26 0 0 1-.456.32.897.897 0 0 1-.458.049 1.232 1.232 0 0 1-.453-.17 2.465 2.465 0 0 1-.439-.342l-1.295-1.251c-.344-.334-.52-.659-.527-.978-.007-.318.153-.647.481-.986.307-.317.616-.494.93-.533.313-.039.632.098.954.41l.236.227-.716.74-.172-.166a1.155 1.155 0 0 0-.344-.25c-.094-.037-.19-.008-.287.087-.114.112-.16.216-.138.31a.627.627 0 0 0 .19.293l1.56 1.507a.43.43 0 0 0 .268.138c.09.006.182-.04.277-.139a.375.375 0 0 0 .107-.177.285.285 0 0 0-.016-.166.554.554 0 0 0-.1-.157 2.66 2.66 0 0 0-.142-.15l-.249-.24-.255.265-.568-.549.971-1.005 1.716 1.658zM35.512 11.224a2.57 2.57 0 0 0-.133-.156.638.638 0 0 0-.15-.123.34.34 0 0 0-.172-.044.327.327 0 0 0-.194.08.316.316 0 0 0-.12.164.359.359 0 0 0-.002.179c.015.06.04.12.077.18.038.06.076.117.117.17l1.105 1.421c.039.05.084.1.135.155a.739.739 0 0 0 .165.13c.058.034.12.052.185.053a.304.304 0 0 0 .195-.074.295.295 0 0 0 .117-.168.368.368 0 0 0-.01-.19.75.75 0 0 0-.09-.188 2.812 2.812 0 0 0-.12-.167zm1.864.721c.151.195.266.38.345.558.08.178.114.35.104.515-.01.166-.064.328-.163.486a1.913 1.913 0 0 1-.458.479c-.206.16-.399.269-.578.327-.18.058-.352.072-.516.042a1.114 1.114 0 0 1-.478-.224 2.626 2.626 0 0 1-.458-.47l-1.095-1.409c-.26-.335-.364-.665-.31-.99.052-.326.257-.628.615-.905.356-.278.697-.4 1.02-.368.324.032.617.216.877.552zM38.96 9.137l.01-.006-.253-1.505.893-.51.343 2.734.913 1.6-.894.51-.913-1.6-2.16-1.696.904-.516zM42.382 6.765l-.011.004.465 1.932.552-.225zm-.108 3.92-.766-4.423 1.148-.467 2.537 3.702-.964.392-.458-.735-.747.304.208.837zM46.452 6.592l-.009.015.68 2.35-.948.235-1.056-4.257 1.027-.255 1.362 2.187.017-.005-.687-2.353.948-.236 1.057 4.257-1.022.253zM52.089 8.12l-.086-.384-.012.001c-.086.197-.191.337-.316.42-.125.083-.298.136-.519.158a1.264 1.264 0 0 1-.554-.05.9.9 0 0 1-.382-.258 1.238 1.238 0 0 1-.236-.423 2.455 2.455 0 0 1-.114-.544l-.18-1.792c-.049-.478.027-.84.228-1.087.2-.248.535-.395 1.004-.442.439-.044.79.02 1.054.193.264.174.42.483.464.93l.033.325-1.024.103-.024-.238a1.161 1.161 0 0 0-.1-.413c-.049-.09-.14-.13-.277-.12-.16.013-.261.062-.305.15a.622.622 0 0 0-.045.344l.218 2.159a.431.431 0 0 0 .116.28c.065.061.165.085.301.072a.372.372 0 0 0 .196-.067.285.285 0 0 0 .095-.136.57.57 0 0 0 .026-.185 2.388 2.388 0 0 0-.012-.207l-.035-.344-.367.038-.079-.786 1.39-.14.24 2.374zM56.276 8.077l.527-4.354 1.022.124-.203 1.672.708.085.203-1.671 1.021.123-.527 4.354-1.022-.123.22-1.811-.708-.086-.22 1.81zM60.252 8.658l1.12-4.24 2.278.6-.224.849-1.283-.339-.206.78 1.244.329-.225.848-1.243-.328-.242.916 1.351.356-.224.848zM65.66 7.724l.323.135c.068.029.131.038.188.028a.332.332 0 0 0 .153-.07.529.529 0 0 0 .118-.14c.035-.057.065-.116.09-.178a.91.91 0 0 0 .08-.296.304.304 0 0 0-.056-.2.495.495 0 0 0-.183-.144 3.497 3.497 0 0 0-.299-.128Zm-.972 2.326-.95-.397 1.69-4.047 1.387.58c.392.163.649.37.77.622.121.25.098.578-.07.981-.09.216-.202.387-.335.513s-.317.193-.553.2l-.004.011a.68.68 0 0 1 .254.316c.05.126.048.26-.004.403-.027.086-.063.19-.107.31l-.134.369c-.046.124-.089.244-.128.358-.04.115-.065.208-.078.278 0 .072.01.132.033.179l-.023.054-1.036-.433a1.117 1.117 0 0 1 .043-.254c.068-.183.137-.354.208-.513.07-.158.125-.303.163-.435a.825.825 0 0 0 .037-.34c-.013-.094-.074-.168-.183-.222l-.313-.13zM70.472 9.493a2.49 2.49 0 0 0 .097-.18.62.62 0 0 0 .06-.186.336.336 0 0 0-.02-.176.328.328 0 0 0-.146-.151.316.316 0 0 0-.196-.053.357.357 0 0 0-.168.064.63.63 0 0 0-.14.137 1.831 1.831 0 0 0-.115.17l-.923 1.547a1.755 1.755 0 0 0-.095.181.732.732 0 0 0-.063.201.38.38 0 0 0 .019.191.307.307 0 0 0 .139.156c.07.041.137.057.2.047a.368.368 0 0 0 .172-.077.756.756 0 0 0 .142-.154c.044-.06.081-.117.113-.171zm.004 1.999c-.125.21-.257.385-.394.523a1.103 1.103 0 0 1-.442.284c-.158.052-.328.06-.512.025a1.922 1.922 0 0 1-.612-.253 1.944 1.944 0 0 1-.515-.42 1.04 1.04 0 0 1-.226-.466 1.12 1.12 0 0 1 .035-.527c.055-.187.146-.386.272-.597l.915-1.531c.218-.365.488-.581.81-.65.322-.069.678.013 1.066.245.388.232.627.505.714.818.087.314.022.653-.196 1.017zM70.767 13.408l2.74-3.424 1.84 1.472-.547.685-1.037-.83-.504.63 1.004.805-.548.684-1.005-.804-.591.74 1.09.873-.547.685zM75.174 15.308l-.224.215a.817.817 0 0 0-.116.136.405.405 0 0 0-.065.151.316.316 0 0 0 .011.164.466.466 0 0 0 .112.172c.084.087.177.12.28.097a.573.573 0 0 0 .276-.152.512.512 0 0 0 .136-.204.661.661 0 0 0 .033-.219.993.993 0 0 0-.03-.226 4.18 4.18 0 0 1-.052-.23 5.717 5.717 0 0 1-.107-.5 1.766 1.766 0 0 1-.018-.458c.017-.146.057-.286.12-.42.064-.134.165-.268.306-.403.298-.286.602-.418.912-.397.31.021.603.177.882.466.154.16.264.326.331.497a1.098 1.098 0 0 1-.082.991c-.09.157-.214.303-.37.437l-.657-.683.137-.148a.81.81 0 0 0 .121-.165.343.343 0 0 0 .045-.177.326.326 0 0 0-.082-.192c-.068-.082-.141-.126-.221-.133a.34.34 0 0 0-.238.078c-.106.08-.167.17-.18.267-.015.098-.013.208.007.33.045.226.092.429.141.606.049.177.074.349.077.514a1.17 1.17 0 0 1-.099.484c-.068.157-.199.33-.393.516-.307.294-.619.437-.937.43-.319-.008-.626-.167-.923-.476a1.804 1.804 0 0 1-.354-.5 1.163 1.163 0 0 1-.113-.47.946.946 0 0 1 .09-.419c.06-.128.142-.242.246-.342l.338-.325zM34.06 57.985l.232.18c.065.05.128.082.19.096a.291.291 0 0 0 .19-.03.839.839 0 0 0 .228-.192.471.471 0 0 0 .127-.22.302.302 0 0 0-.025-.187.578.578 0 0 0-.13-.171 9.996 9.996 0 0 0-.187-.172zm-1.25 1.393.255.212c.07.058.14.095.206.11a.291.291 0 0 0 .208-.033c.07-.038.156-.113.255-.223a.643.643 0 0 0 .156-.253.344.344 0 0 0-.012-.21.584.584 0 0 0-.133-.198 11.846 11.846 0 0 0-.211-.21zm-1.293-.1 2.93-3.264.992.89c.145.13.268.264.37.402.1.139.169.282.203.43.034.15.03.301-.012.457a1.223 1.223 0 0 1-.287.48c-.13.146-.278.253-.442.324a.86.86 0 0 1-.545.033l-.008.009c.042.127.07.24.08.34a.757.757 0 0 1-.018.278.89.89 0 0 1-.118.259c-.056.085-.13.179-.22.28-.298.331-.602.492-.913.483-.31-.01-.622-.153-.932-.432zM38.091 59.982l-.01-.006-1.346 1.461.494.334zm-3.317 2.093 3.249-3.098 1.027.693-1.664 4.168-.863-.582.357-.79-.669-.45-.58.638zM40.08 63.623l-.138.278a.875.875 0 0 0-.064.168.405.405 0 0 0-.01.164c.008.055.03.104.066.15.036.047.09.088.163.124.108.054.207.053.296-.003a.573.573 0 0 0 .209-.236.508.508 0 0 0 .06-.238.66.66 0 0 0-.043-.217 1.024 1.024 0 0 0-.105-.202 3.528 3.528 0 0 1-.126-.2 5.674 5.674 0 0 1-.27-.435 1.786 1.786 0 0 1-.172-.425 1.334 1.334 0 0 1-.028-.435c.014-.147.064-.308.151-.483.184-.37.425-.597.724-.681.3-.085.628-.038.988.141.199.1.359.218.48.356a1.098 1.098 0 0 1 .257.96 1.685 1.685 0 0 1-.202.537l-.848-.421c.025-.058.05-.12.08-.187a.832.832 0 0 0 .058-.196.346.346 0 0 0-.018-.181.326.326 0 0 0-.142-.153c-.091-.054-.176-.07-.253-.05a.336.336 0 0 0-.197.153c-.073.112-.1.216-.08.313.02.097.058.199.118.307.12.198.232.373.337.524.106.15.188.302.246.458.058.155.081.318.07.489-.01.17-.076.376-.195.617-.19.38-.436.621-.738.721-.302.1-.645.055-1.029-.136a1.786 1.786 0 0 1-.501-.35 1.165 1.165 0 0 1-.266-.406.952.952 0 0 1-.057-.424c.014-.141.052-.276.117-.405l.208-.42zM42.495 66.337l1.433-4.145 2.227.77-.286.829-1.255-.434-.263.763 1.215.42-.286.829-1.216-.42-.31.895 1.321.456-.286.83zM47.982 65.186l.29.037c.082.011.153.006.212-.013.06-.02.11-.061.15-.122a.837.837 0 0 0 .099-.282.479.479 0 0 0-.003-.254.303.303 0 0 0-.116-.148.58.58 0 0 0-.198-.082 9.204 9.204 0 0 0-.249-.053zm-.37 1.834c.127.022.235.04.326.054.09.014.169.011.234-.009a.29.29 0 0 0 .162-.135c.041-.068.077-.176.106-.321a.645.645 0 0 0 .007-.297.347.347 0 0 0-.117-.176.584.584 0 0 0-.215-.103 11.483 11.483 0 0 0-.29-.073zm-1.165.57.867-4.299 1.307.264c.191.038.366.091.523.16.157.066.288.156.393.266a.924.924 0 0 1 .22.4c.043.156.042.343-.002.56a1.246 1.246 0 0 1-.217.502.86.86 0 0 1-.453.306l-.002.011c.102.088.182.172.242.251.06.08.101.163.125.25.025.086.034.18.03.283-.005.103-.021.22-.048.354-.088.436-.269.729-.541.878-.273.15-.614.183-1.023.101zM52.46 64.859h-.012L52.03 66.8l.595.037zm-1.797 3.487 1.226-4.319 1.238.076.683 4.436-1.04-.063-.093-.861-.806-.05-.174.844zM55.294 68.506l-.281-4.376 1.027-.066.225 3.502 1.254-.082.057.876zM59.053 68.172l-.785-4.316 1.013-.184.628 3.452 1.237-.224.157.863zM65.786 63.332l-.105-.26c-.071-.173-.152-.292-.244-.358s-.184-.08-.274-.043c-.15.057-.233.132-.25.228a.63.63 0 0 0 .054.344l.814 2.01a.447.447 0 0 0 .185.238c.076.043.177.038.304-.013a.32.32 0 0 0 .166-.134.406.406 0 0 0 .05-.187.632.632 0 0 0-.031-.209 2.597 2.597 0 0 0-.071-.198l-.15-.369.953-.388.202.498c.071.173.11.344.117.511a1.03 1.03 0 0 1-.09.476c-.068.15-.177.289-.328.418-.152.13-.349.243-.59.342-.22.09-.42.137-.596.141a1 1 0 0 1-.48-.098 1.107 1.107 0 0 1-.379-.319 2.208 2.208 0 0 1-.291-.522l-.68-1.667c-.182-.445-.211-.813-.089-1.108.122-.293.402-.53.839-.708.202-.082.393-.134.572-.154.179-.02.343-.007.494.042.15.048.285.135.406.26.12.126.223.292.306.498l.14.34zM69.308 64.842l-2.159-3.817.896-.507 1.727 3.054 1.094-.619.433.763zM69.984 59.361l.824-.616 1.982 2.652a.747.747 0 0 0 .103.112.268.268 0 0 0 .253.07.44.44 0 0 0 .164-.082.334.334 0 0 0 .11-.13.316.316 0 0 0 .028-.145.403.403 0 0 0-.035-.145.653.653 0 0 0-.074-.128l-1.964-2.627.825-.617 1.9 2.545c.113.149.198.302.258.456.06.155.08.312.063.471-.017.16-.076.32-.177.48-.102.16-.257.32-.466.476-.35.261-.685.38-1.006.354-.32-.026-.617-.22-.887-.582zM76.32 58.798c.09-.093.165-.173.227-.24a.508.508 0 0 0 .124-.2.29.29 0 0 0-.022-.21 1.067 1.067 0 0 0-.207-.267.649.649 0 0 0-.243-.171.342.342 0 0 0-.21-.001.597.597 0 0 0-.206.12c-.068.06-.142.126-.222.2zm-1.314-1.331.194-.22a.477.477 0 0 0 .106-.184.287.287 0 0 0-.017-.193.829.829 0 0 0-.179-.238.48.48 0 0 0-.212-.14.305.305 0 0 0-.188.013.578.578 0 0 0-.178.119c-.059.055-.12.114-.183.177zm1.137 2.616-3.082-3.121.95-.936c.138-.138.28-.253.423-.346a1.17 1.17 0 0 1 .442-.176.919.919 0 0 1 .454.04c.153.052.307.157.463.315.137.138.236.292.295.46.06.17.06.351 0 .547l.01.008c.13-.035.244-.055.343-.06.1-.005.192.007.276.035.086.028.17.073.252.134.082.061.171.14.267.238.312.316.455.628.426.939-.028.31-.19.611-.487.904z" style="fill:#fff;fill-opacity:1;fill-rule:nonzero;stroke:none;stroke-width:.360738"/><path d="M54.258 61.842c-14.288 0-25.872-11.583-25.872-25.872 0-14.29 11.584-25.873 25.872-25.873 14.29 0 25.873 11.583 25.873 25.873 0 14.289-11.583 25.872-25.873 25.872" style="fill:#570616;fill-opacity:1;fill-rule:nonzero;stroke:none;stroke-width:.360738"/><path d="M63.653 58.634c-12.525 5.188-26.883-.76-32.07-13.284-5.187-12.524.759-26.88 13.283-32.069 12.524-5.186 26.882.76 32.068 13.284 5.189 12.524-.759 26.881-13.281 32.069" style="fill:#fff;fill-opacity:1;fill-rule:nonzero;stroke:none;stroke-width:.360738"/><path d="M75.496 43.81a.677.677 0 0 0-.164.519.243.243 0 0 0 .017.06c.013.035.03.06.052.08a17.851 17.851 0 0 1-.37 1.849.56.56 0 0 0-.014.176c.013.117.08.18.182.154.143-.035.307-.234.362-.447.173-.683.308-1.382.401-2.089.379-.42.745-.812 1.107-1.195a.661.661 0 0 0 .142-.54c-.042-.174-.173-.216-.291-.09-.458.474-.928.967-1.424 1.524M74.19 43.325a.65.65 0 0 0-.138.517.35.35 0 0 0 .037.098.22.22 0 0 0 .074.071c-.019.647-.076 1.29-.174 1.931a.628.628 0 0 0-.003.144c.025.137.122.207.256.162.17-.054.34-.283.373-.507.11-.728.17-1.458.184-2.19.404-.5.804-.98 1.188-1.422a.608.608 0 0 0 .11-.582c-.072-.177-.237-.194-.37-.045a64.211 64.211 0 0 0-1.537 1.823M72.435 43.04a.601.601 0 0 0-.11.492.324.324 0 0 0 .079.141c.027.03.06.048.096.06.063.652.085 1.31.067 1.948a.44.44 0 0 0 .008.1c.035.161.17.23.34.16.196-.086.36-.336.368-.563a15.97 15.97 0 0 0-.089-2.216c.416-.568.829-1.11 1.246-1.65.137-.18.16-.454.05-.617-.111-.16-.312-.148-.45.03a77.576 77.576 0 0 0-1.605 2.114M70.33 43.012a.566.566 0 0 0-.084.469.332.332 0 0 0 .127.175.316.316 0 0 0 .12.047c.164.644.283 1.288.35 1.937l.012.054c.049.19.233.26.435.158.22-.11.378-.383.356-.609a14.602 14.602 0 0 0-.407-2.214c.421-.642.844-1.272 1.263-1.87.143-.202.141-.49-.007-.64-.147-.153-.387-.11-.53.094a71.606 71.606 0 0 0-1.635 2.399M67.879 43.293a.534.534 0 0 0-.054.428c.035.093.101.166.194.21a.436.436 0 0 0 .146.027 14.933 14.933 0 0 1 .671 1.874c.063.222.31.29.55.147.24-.137.383-.43.321-.65a15.385 15.385 0 0 0-.773-2.15c.405-.707.82-1.392 1.246-2.095.141-.232.101-.523-.092-.653-.195-.127-.468-.046-.609.188a75.91 75.91 0 0 0-1.6 2.674M65.133 43.881a.494.494 0 0 0-.028.382.378.378 0 0 0 .265.237.483.483 0 0 0 .168.013c.39.583.734 1.172 1.024 1.774.103.21.389.244.647.082.251-.167.377-.47.277-.68a14.548 14.548 0 0 0-1.176-2.045c.371-.765.757-1.529 1.161-2.273.14-.254.06-.547-.173-.654-.237-.107-.54.01-.682.265a56.443 56.443 0 0 0-1.483 2.9M62.17 44.786a.442.442 0 0 0-.005.326c.053.135.179.234.349.258a.715.715 0 0 0 .186-.007c.51.539.972 1.075 1.383 1.623.144.197.471.196.73.008.26-.19.35-.502.208-.696a19.079 19.079 0 0 0-1.59-1.88c.308-.798.644-1.601 1.006-2.416.12-.275-.004-.563-.278-.637-.277-.078-.6.082-.726.36a50.825 50.825 0 0 0-1.264 3.06M59.109 45.968a.401.401 0 0 0 .015.265c.063.154.223.263.434.27a.673.673 0 0 0 .197-.025c.611.467 1.19.956 1.715 1.443.187.177.547.15.797-.061.253-.208.304-.519.12-.696a24.126 24.126 0 0 0-1.983-1.675c.221-.818.48-1.645.77-2.487.1-.286-.07-.556-.376-.604a.694.694 0 0 0-.74.43c-.37 1.059-.69 2.104-.95 3.14M56.094 47.357c-.01.072 0 .143.026.205.07.17.263.282.505.276a.67.67 0 0 0 .2-.036 31.81 31.81 0 0 1 2.007 1.244c.221.153.591.097.828-.118.24-.219.246-.522.026-.677a30.705 30.705 0 0 0-2.325-1.447c.12-.811.27-1.654.469-2.482.072-.29-.137-.543-.462-.565-.328-.022-.647.195-.718.486a28.833 28.833 0 0 0-.556 3.114M53.307 49.053c.083.188.314.308.581.277a.788.788 0 0 0 .19-.05c.765.332 1.508.684 2.208 1.03.256.126.63.045.83-.178.203-.227.163-.51-.091-.64-.808-.4-1.677-.813-2.576-1.197-.006-.778.045-1.57.118-2.422.027-.285-.222-.51-.553-.496-.328.01-.615.246-.64.53-.092 1.048-.145 2.03-.096 3.01 0 .051.012.095.029.136M50.805 50.628c.092.196.35.317.625.272a.76.76 0 0 0 .184-.057c.796.263 1.573.535 2.332.825.273.102.629.006.798-.214.17-.222.084-.489-.192-.592a58.407 58.407 0 0 0-2.735-.958c-.13-.731-.22-1.495-.255-2.276-.012-.272-.28-.47-.6-.442-.316.028-.563.266-.55.538.048.983.178 1.936.367 2.824a.345.345 0 0 0 .026.08M48.703 52.23c.102.205.394.322.665.262a.626.626 0 0 0 .163-.062c.8.203 1.593.411 2.369.627.283.08.613-.03.734-.243.126-.215-.013-.456-.3-.535v.002c-.908-.253-1.84-.494-2.778-.728a16.803 16.803 0 0 1-.612-2.102c-.056-.255-.341-.417-.636-.372-.291.044-.481.287-.423.538a15.829 15.829 0 0 0 .818 2.612M47.053 53.821c.125.197.423.304.671.233a.457.457 0 0 0 .14-.064c.776.142 1.555.294 2.337.455.284.06.576-.057.654-.257.077-.204-.094-.416-.384-.474-.917-.19-1.829-.363-2.734-.524a14.088 14.088 0 0 1-.92-1.89c-.09-.229-.38-.366-.641-.315-.259.057-.396.285-.304.511a14.465 14.465 0 0 0 1.181 2.325M46.524 55.551a.36.36 0 0 0 .115-.067c.737.096 1.485.197 2.234.303.279.039.527-.079.556-.265.029-.187-.175-.37-.457-.413a163.25 163.25 0 0 0-2.608-.342 15.568 15.568 0 0 1-1.177-1.68.589.589 0 0 0-.632-.249c-.208.062-.29.26-.19.452a15.165 15.165 0 0 0 1.505 2.08.652.652 0 0 0 .654.181M45.727 56.957c.04-.017.07-.041.092-.067.684.053 1.38.11 2.1.176.26.025.47-.094.458-.26-.009-.173-.234-.331-.501-.354-.84-.077-1.656-.14-2.445-.197a14.863 14.863 0 0 1-1.365-1.457c-.146-.18-.414-.269-.602-.204-.167.056-.211.22-.118.38.013.019.027.04.042.059a16.192 16.192 0 0 0 1.714 1.787c.169.148.447.21.625.137M45.313 58.257a.157.157 0 0 0 .069-.065c.625.02 1.272.042 1.93.069.245.006.407-.107.36-.26-.048-.154-.291-.288-.541-.293-.764-.027-1.517-.054-2.238-.07a17.003 17.003 0 0 1-1.505-1.256c-.166-.156-.42-.222-.572-.153-.12.056-.133.184-.05.31.02.03.048.062.079.093a16.844 16.844 0 0 0 1.882 1.53c.182.129.444.17.586.095M33.162 25.533c.058-.206.223-.4.368-.435.102-.025.167.037.177.145a.514.514 0 0 1-.018.171 16.438 16.438 0 0 0-.397 1.785.19.19 0 0 1 .049.076.212.212 0 0 1 .014.058.65.65 0 0 1-.171.502c-.502.54-.978 1.023-1.441 1.486-.12.121-.249.084-.288-.082a.637.637 0 0 1 .152-.524c.364-.372.735-.753 1.12-1.164.104-.681.25-1.357.435-2.018M34.094 25.964c.037-.215.208-.437.38-.493.133-.045.228.02.25.152a.54.54 0 0 1-.006.138c-.109.62-.176 1.24-.206 1.863a.196.196 0 0 1 .073.068.324.324 0 0 1 .035.095c.033.15-.023.353-.146.498a64.648 64.648 0 0 1-1.559 1.775c-.135.145-.3.13-.367-.037-.067-.165-.016-.418.118-.564.39-.432.796-.899 1.207-1.384.025-.706.097-1.408.22-2.11M35.41 26.295a.688.688 0 0 1 .376-.547c.17-.069.304-.004.335.15.006.03.009.061.007.096-.03.617-.018 1.248.033 1.876a.229.229 0 0 1 .094.056c.035.036.06.082.075.132a.575.575 0 0 1-.116.479 90.28 90.28 0 0 1-1.632 2.057c-.14.174-.34.188-.45.033-.104-.153-.078-.418.062-.592a92.91 92.91 0 0 0 1.267-1.61 14.598 14.598 0 0 1-.05-2.13M37.035 26.406c-.017-.218.144-.485.364-.593.203-.102.385-.035.43.145l.01.053c.057.623.164 1.242.314 1.86.043.008.084.02.12.045.06.038.1.096.122.165a.544.544 0 0 1-.091.454 70.952 70.952 0 0 1-1.667 2.33c-.145.2-.385.243-.528.098-.144-.142-.14-.417.004-.616.427-.58.858-1.194 1.288-1.818a13.331 13.331 0 0 1-.366-2.123M39.044 26.59a7.756 7.756 0 0 1-.082-.295c-.057-.21.09-.494.331-.63.242-.141.486-.08.543.134.027.095.053.19.082.285.15.503.336 1.01.554 1.51.05 0 .098.008.144.025.091.041.155.11.188.2.04.12.025.27-.06.412-.536.9-1.081 1.746-1.635 2.597-.146.225-.417.308-.61.188-.19-.12-.224-.4-.08-.628a92.55 92.55 0 0 0 1.273-2.032 14.345 14.345 0 0 1-.648-1.766M42.31 27.873a13.492 13.492 0 0 1-1.133-1.953c-.096-.201.035-.494.286-.658.26-.16.543-.132.642.07.278.574.61 1.137.987 1.694a.512.512 0 0 1 .166.009c.128.034.22.116.26.225a.466.466 0 0 1-.035.369 55.283 55.283 0 0 1-1.524 2.81c-.145.249-.448.366-.681.266-.23-.1-.305-.382-.162-.629.415-.72.812-1.462 1.193-2.203M45.183 27.09a17.988 17.988 0 0 1-1.547-1.788c-.138-.187-.043-.489.218-.673.261-.188.588-.189.727-.003.399.522.848 1.033 1.345 1.545a.66.66 0 0 1 .187-.01c.168.021.29.115.341.243a.412.412 0 0 1-.01.316 51.632 51.632 0 0 1-1.31 2.965c-.13.267-.453.425-.726.355-.272-.07-.389-.343-.267-.61.374-.79.722-1.566 1.042-2.34M47.401 28.422a37.13 37.13 0 0 0 .81-2.405 22.442 22.442 0 0 1-1.942-1.586c-.18-.168-.123-.467.131-.671.252-.205.61-.237.793-.07.514.461 1.08.925 1.677 1.367a.72.72 0 0 1 .197-.026c.211.004.367.108.428.255.03.075.038.16.011.254a35.257 35.257 0 0 1-1 3.035c-.104.28-.435.468-.741.426-.302-.043-.468-.301-.364-.58M51.197 27.646c-.323-.016-.526-.257-.45-.536.213-.801.378-1.616.51-2.398a28.837 28.837 0 0 1-2.285-1.363c-.216-.146-.204-.437.038-.65.238-.212.607-.27.824-.126.621.406 1.275.787 1.973 1.17a.798.798 0 0 1 .2-.037c.24-.01.429.097.496.26a.383.383 0 0 1 .023.199c-.142.95-.334 1.98-.607 3.003-.077.281-.397.492-.722.478M54.017 25.572a23.79 23.79 0 0 0 .16-2.334 47.48 47.48 0 0 1-2.54-1.119c-.25-.12-.285-.394-.079-.614.203-.22.577-.3.828-.184.69.326 1.422.654 2.175.964a.724.724 0 0 1 .192-.05c.265-.036.493.078.571.257a.343.343 0 0 1 .028.13c.03.944-.038 1.892-.148 2.901-.03.273-.32.508-.646.52-.33.016-.573-.196-.541-.471M57.034 23.843a16.372 16.372 0 0 0-.214-2.19 57.218 57.218 0 0 1-2.7-.883c-.274-.097-.356-.354-.183-.57.173-.215.528-.311.799-.215.747.267 1.516.52 2.302.762a.76.76 0 0 1 .183-.057c.274-.047.529.066.617.253.012.026.02.05.025.077.172.853.285 1.77.316 2.715.005.26-.243.494-.558.525-.318.031-.58-.156-.587-.417M59.666 22.053a15.171 15.171 0 0 0-.57-2.015c-.93-.213-1.85-.433-2.748-.663-.284-.075-.418-.303-.289-.512.124-.207.453-.317.735-.244.767.197 1.552.388 2.344.572a.602.602 0 0 1 .16-.062c.272-.061.559.047.657.246a14.527 14.527 0 0 1 .767 2.504c.053.24-.14.475-.43.523-.292.048-.574-.107-.626-.349M61.813 20.243a12.61 12.61 0 0 0-.477-1.065c-.127-.254-.263-.5-.404-.744-.898-.142-1.801-.297-2.708-.466-.287-.052-.454-.254-.374-.453.081-.193.373-.31.655-.254.774.145 1.546.28 2.314.407a.463.463 0 0 1 .14-.066c.248-.07.541.03.662.217a13.037 13.037 0 0 1 1.133 2.223c.087.216-.052.438-.31.494-.261.056-.544-.072-.631-.293M63.462 18.5a14.236 14.236 0 0 0-1.14-1.6c-.854-.09-1.719-.19-2.586-.298-.279-.035-.479-.209-.446-.39.032-.179.282-.295.558-.262.742.092 1.483.179 2.215.263a.357.357 0 0 1 .115-.066.644.644 0 0 1 .648.165c.54.606 1.008 1.255 1.443 1.957.008.009.01.017.015.026.096.184.011.374-.198.438a.58.58 0 0 1-.624-.232M64.607 16.84a13.994 13.994 0 0 0-1.33-1.387c-.785-.044-1.593-.094-2.426-.155-.265-.02-.487-.169-.493-.334-.009-.163.201-.28.46-.258.714.053 1.406.1 2.084.142a.276.276 0 0 1 .092-.065c.178-.075.454-.018.618.122a15.039 15.039 0 0 1 1.673 1.7c.015.019.029.036.04.056.09.15.042.31-.123.367-.188.064-.453-.018-.595-.188M65.31 15.305c-.48-.435-.965-.826-1.478-1.19-.715-.007-1.461-.021-2.219-.036-.25-.004-.49-.129-.535-.278-.044-.144.12-.256.364-.252.652.017 1.295.029 1.917.038a.159.159 0 0 1 .07-.062c.141-.074.4-.039.58.082.66.442 1.26.921 1.844 1.452.03.028.056.056.076.086.08.12.065.243-.056.3-.15.069-.403.007-.563-.14" style="fill:#570616;fill-opacity:1;fill-rule:nonzero;stroke:none;stroke-width:.360738"/><path d="M99.563 34.518a10.94 10.94 0 0 0 1.031-2.87c.36-1.646.252-3.127-.32-4.409l.128-.605a361 361 0 0 1 .764-3.507l.616-2.748-2.436-1.398c-.356-.204-2.272-1.22-5.003-1.22-.364 0-.73.02-1.087.054-2.44.241-4.64 1.056-6.367 2.356-.277.21-.543.431-.794.663-1.106-.926-2.782-1.763-5.233-1.763-.353 0-.718.018-1.086.054-1.912.186-3.815.853-5.502 1.926-.802.51-1.54 1.1-2.205 1.764-1.19-1.152-3.138-2.268-6.217-2.268a12.627 12.627 0 0 0-6.366 1.706l-1.198-.434c-.22-.08-1.447-.473-2.484-.366l-4.911.506-.492.195c-1.723.687-3.302 1.16-4.822 1.442l-2.126.21c-1.066-.487-2.272-.733-3.597-.733-.347 0-.712.018-1.087.054a12.294 12.294 0 0 0-3.513.888l.833-3.835-9.266.925-.595 3.042a1.45 1.45 0 0 1-.066.214 1.605 1.605 0 0 1-.147.018c-.048.002-.089.006-.125.01l-4.688.459 1.807-8.325v-.002c.502-2.58 1.45-4.304 3.257-6.373 2.21-2.506 6.035-5.16 6.035-5.16s-2.704-.941-6.185-.941c-3.345 0-6.187.616-8.448 1.833-3.012 1.569-6.876 4.717-8.197 10.806l-2.064 9.517-3.253.32L2.18 36.681l3.018-.297-1.018 4.695-2.448.255L0 50.258l16.23-1.596c-1.085 3.587-3.265 6.988-5.446 9.388 9.054 1.432 12.906-1.808 13.918-2.66a13.59 13.59 0 0 0 1.13-1.068c6.029-.715 68.665-8.196 68.665-8.196l9.605-7.233-3.073.301 3.928-2.728-3.249.32 4.205-2.896z" style="fill:#570616;fill-opacity:1;fill-rule:nonzero;stroke:none;stroke-width:.360738"/><path d="M89.736 33.676c-.755 0-1.26-.314-1.394-.48l.357-1.646c.705.175 1.463.286 2.174.389.46.066.895.128 1.166.193a1.704 1.704 0 0 1-.021.185c-.01.048-.231 1.169-2.04 1.349-.08.007-.16.01-.242.01m-11.161 5.375c1.805-.307 3.344-.982 5.212-2.28l.816.396c.074.035 1.84.878 4.16.878l.12-.001zm-1.274-5.489c-.297-.372-.428-.918-.39-1.607 2.196-.214 7.027-.693 7.703-.76l.258-.025-.545 2.483-.851-1.24-1.056.571c-1.266.686-1.944.984-3.55 1.154a2.5 2.5 0 0 1-.194.008c-.34 0-.968-.077-1.375-.584M63.155 40.56c2.642-.477 5.688-2.18 7.446-5.62.198.87.553 1.624 1.064 2.26.746.926 2.204 2.03 4.918 2.03l.216-.003zm-.767-4.163c-.332 0-.442-.102-.52-.2-.346-.43-.574-1.743-.076-4.03.996-4.575 2.424-4.743 2.903-4.794.056-.005.112-.007.163-.007.331 0 .442.102.52.198.346.43.574 1.743.077 4.03-.997 4.576-2.426 4.744-2.903 4.795a1.572 1.572 0 0 1-.164.008m-24.9 6.671c1.605-.262 2.996-.81 4.584-1.821l-.182.969 11.308-1.102.697-3.908-2.66.26 1.228-5.653c.183-.837.538-1.242.901-1.427l-.196.937 2.532-.25c-.078.275-.149.552-.21.837-.641 2.935-.329 5.215.93 6.777.744.926 2.203 2.03 4.916 2.03l.242-.003zm-1.192-5.503c-.298-.37-.429-.918-.39-1.606 2.194-.214 7.026-.693 7.702-.76l.972-.096.2-.955c.06-.283.256-1.216.302-1.45.217-.989.256-1.928.128-2.786l1.398-.138-1.65 7.588c-.08.362-.537.768-.906.803l-.357.036-1.225-1.785-1.056.571c-1.267.687-1.944.984-3.55 1.154-.064.005-.13.008-.194.008-.339 0-.968-.075-1.374-.584m-7.925 6.395c.18-.691.302-1.256.383-1.626l.79-3.642c.185.976.556 1.815 1.116 2.51.746.927 2.203 2.03 4.918 2.03.092 0 .186-.001.281-.005zm10.12-14.027c.532-.039.676.663.576 1.44l-2.266.222c.415-.986.907-1.585 1.69-1.662m41.006-4.003c.532-.04.676.662.575 1.44l-2.266.223c.416-.988.908-1.587 1.691-1.663m13.673-1.334c.094-.007.187-.01.277-.01.47 0 .762.09.91.158l-.243 1.163c-.208-.028-.409-.05-.595-.07l-.215-.024c-1.119-.132-1.622-.217-1.848-.267.184-.367.733-.85 1.714-.95m2.066 11.27c1.604-1.27 2.513-2.735 2.945-4.745.308-1.41.136-2.582-.512-3.484a3.482 3.482 0 0 0-.444-.505l.559-.054.202-.955c.382-1.806.768-3.532.772-3.549l.215-.96-.852-.488c-.16-.091-1.62-.893-3.778-.893-.28 0-.565.014-.845.041-1.987.197-3.759.843-5.122 1.87a7.364 7.364 0 0 0-2.341 2.942 4.997 4.997 0 0 0-.881-1.697c-.677-.843-1.971-1.847-4.292-1.847a8.48 8.48 0 0 0-.845.043c-2.793.272-6.26 1.957-8.183 5.72-.199-.869-.554-1.623-1.066-2.258-.745-.926-2.203-2.03-4.916-2.03-.348 0-.712.02-1.086.056-1.984.197-3.94 1.03-5.51 2.343-.41.343-.79.72-1.145 1.124l.434-2-1.095-.396c-.129-.047-.6-.2-1.267-.2-.575 0-1.356.115-2.134.583l.091-.42-2.652.274-.172.069c-1.915.763-3.68 1.285-5.392 1.595l-1.052.105-.376 1.738a4.927 4.927 0 0 0-.348-.496c-.677-.842-1.97-1.848-4.292-1.848a9.07 9.07 0 0 0-.846.042c-2.557.252-5.683 1.687-7.668 4.821l1.224-5.64.389-1.792-4.06.405-.25 1.279c-.306 1.374-1.112 2.088-2.465 2.185l-.083.006-6.78.666a8.392 8.392 0 0 0-1.27.222l2.545-11.724.003-.015c.907-4.103 2.53-6.771 6.827-9.459-3.214-.259-5.887.112-8.606 1.528-2.544 1.324-5.812 3.985-6.93 9.142L9.44 28.485l-3.213.316-.99 5.097 3.094-.305-1.866 8.612c-.129.592-.821 1.21-1.431 1.268l-1.225.128-.752 3.875 13.114-1.29.87-3.89-1.882.183c-.028.002-.056.004-.082.004a.361.361 0 0 1-.17-.03c-.008-.013-.033-.095.002-.256.608-2.801 1.62-7.462 2.054-9.454l5.544-.547-2.462 11.347c-1.809 8.34-2.998 10.042-4.556 12.085 3.387.562 6.155-.893 7.624-2.128.524-.44 1.02-.947 1.491-1.514l68.95-8.234.025-.017 5.807-4.064-1.98.221 2.275-1.58-1.979.209 2.267-1.56-9.319.91c1.736-.303 3.275-.975 4.586-2.007" style="fill:#a7a5a6;fill-opacity:1;fill-rule:nonzero;stroke:none;stroke-width:.360738"/><path d="M99.969 36.96h.007v-.005z" style="fill:#7b7979;fill-opacity:1;fill-rule:nonzero;stroke:none;stroke-width:.360738"/><path d="M26.214 28.176c.376-.032 3.043-.084 3.735-3.246l.063-.322 1.251-.124-3.811 17.566c-.505 2.326-2.522 11.626-9.628 12.32 0 0 1.423-.856 3.524-10.545l2.85-13.134-8.332.82-2.26 10.403c-.251 1.16.502 2.007 1.684 1.89l.05-.004-.259 1.154-10.375 1.02.224-1.149.242-.024c1.181-.117 2.344-1.152 2.594-2.314l2.256-10.4-3.094.305.46-2.367 3.149-.309 2.651-12.224c1.954-9.006 11.02-9.732 11.02-9.732-3.527 1.184-4.919 7.97-4.919 7.97l-3.197 14.736s.735-1.366 3.354-1.624zM40.199 32.599c.508-1.83.338-4.199-1.396-4.038-1.205.122-3.05.962-3.81 4.23l-.059.326 5.265-.518m3.578-.17c-.033.168-.229 1.11-.3 1.444 0 0-8.344.826-8.735.856-.804 3.573 1.319 4.905 3.248 4.739 1.8-.19 2.655-.549 4.06-1.309l.688 1.003c-2.573 1.92-4.18 2.481-6.207 2.689-4.222.408-6.666-1.788-5.497-7.143 1.142-5.265 5.009-7.492 8.106-7.795 3.856-.38 5.356 2.267 4.637 5.516M81.206 28.596c.507-1.83.338-4.199-1.397-4.038-1.205.122-3.052.962-3.81 4.231l-.06.327 5.267-.52m3.576-.17c-.032.168-.23 1.11-.299 1.443 0 0-8.343.828-8.735.858-.803 3.572 1.32 4.905 3.248 4.737 1.799-.188 2.656-.548 4.06-1.308l.688 1.003c-2.574 1.92-4.18 2.482-6.208 2.688-4.22.41-6.666-1.787-5.496-7.142 1.142-5.265 5.01-7.493 8.106-7.795 3.856-.38 5.355 2.267 4.636 5.515M45.97 27.38l.138-.015c1.786-.319 3.645-.858 5.701-1.678l.638-.066-.624 2.868 2.423-2.446c1.126-1.062 2.491-.742 2.75-.647l-.934 4.301-1.218.121c.147-.703-.48-.954-1.12-.896-.73.064-2.107.518-2.563 2.607l-1.252 5.76c-.203.928.4 1.605 1.345 1.513l1.02-.098-.21 1.181-8.536.831.222-1.182.432-.043c.946-.093 1.876-.919 2.077-1.847l1.675-7.696c.202-.928-.4-1.606-1.345-1.512l-.867.085zM66.756 31.878c-.75 3.445-1.944 5.613-4.07 5.836-2.442.236-2.946-2.385-2.197-5.831.75-3.446 1.945-5.614 4.072-5.837 2.443-.236 2.945 2.384 2.195 5.832m-1.858-7.48c-3.097.31-6.964 2.531-8.106 7.794-1.17 5.356 1.275 7.552 5.497 7.144 3.097-.304 6.963-2.532 8.107-7.796 1.169-5.354-1.276-7.55-5.498-7.142M93.147 27.136c-1.035-.123-1.725-.225-2.074-.313-.779-.202-1.129-.663-.976-1.416.214-.931 1.24-1.97 2.958-2.14 1.623-.123 2.865.518 2.644 1.57l-.235 1.129 1.218-.12c.388-1.835.776-3.565.776-3.565s-1.577-.903-3.828-.681c-3.506.346-6.113 2.214-6.752 5.185-.287 1.287 0 2.26.706 2.859 1.005.834 3.819.925 4.9 1.225.727.228 1.005.786.845 1.685-.127.707-.874 2.205-3.227 2.438-1.753.163-3.322-.872-3.08-1.99l.276-1.282-1.204.102-.91 4.145s1.921.93 4.319.712c1.91-.167 3.545-.788 4.906-1.862 1.356-1.072 2.099-2.257 2.47-3.983.738-3.37-2.157-3.518-3.732-3.698M96.09 38.678l-1.959 1.35 1.706-.18-1.96 1.362 1.706-.192-1.98 1.385-66.55 7.948a21.4 21.4 0 0 0 .206-.371c.887-1.649 1.497-3.356 1.909-4.76l66.923-6.542" style="fill:#fff;fill-opacity:1;fill-rule:nonzero;stroke:none;stroke-width:.360738"/></svg>