<svg xmlns="http://www.w3.org/2000/svg" width="1000" height="889.692" viewBox="0 0 1000 889.692"><path d="M923.73 416.515c.597 2.654 2.045 6.63 3.543 10.754l.23.631a571 571 0 0 1 2.094 5.835c2.183-.042 4.401-.046 6.644-.008 7.851.142 15.617.824 22.424 2.293 9.37 2.023 18.002 5.604 25.125 11.237 7.61 6.02 13.036 13.874 15.39 23.947 2.243 9.6.571 28.468-13.729 49.38-8.284 12.124-21.057 25.75-40.23 39.506-7.553 5.416-16.745 11.269-27.883 17.547a416 416 0 0 1-22.655 11.855c-18.53 84.73-65.22 159.012-129.716 212.46-66.105 54.774-150.888 87.74-243.214 87.74-51.737 0-101.167-10.389-146.306-29.193-43.4-18.076-82.789-43.96-116.4-75.893-8.667 1.647-18.41 4.185-29.512 8.139-15.755 5.611-34.054 14.083-55.584 26.892-6.403 3.808-15.357 8.703-25.256 11.613-13.086 3.844-27.102 4.078-39.546-4.493-8.5-5.856-13.412-13.945-15.41-22.843-1.96-8.72-.86-18.037 2.52-26.289 11.286-27.588 24.958-51.077 40.407-71.126a274 274 0 0 1 13.122-15.755c-14.357-3.755-26.374-11.801-35.815-22.52-11.276-12.802-18.651-29.466-21.65-46.864a55.4 55.4 0 0 1-15.677-.919c-9.012-1.817-17.132-5.725-24.135-11.038-7.251-5.498-13.25-12.415-17.732-19.968-4.81-8.103-8.29-17.632-9.93-28.007-1.484-9.377-1.392-19.428.68-29.686 2.62-12.961 7.564-24.588 14.183-34.881 7.113-11.067 16.135-20.635 26.232-28.692 10.531-8.401 22.474-15.223 34.708-20.397 13.09-5.534 26.584-9.143 39.056-10.74q3.582-.46 7.06-.739a379 379 0 0 1 16.074-58.423 381 381 0 0 1 20.24-46.016c-11.193-2.974-22.352-6.35-32.929-10.633-14.296-5.795-29.31-12.539-44.45-20.958-15.209-8.457-30.158-18.48-43.993-30.714-14.293-12.636-27.183-27.443-37.693-45.026-10.57-17.686-18.686-38.008-23.343-61.529a21 21 0 0 1-.283-1.927c-.53-3.482-.526-6.925.04-10.314.713-4.302 2.253-8.401 4.667-12.245q.602-.958 1.285-1.824a33.4 33.4 0 0 1 8.014-7.873c3.748-2.594 7.996-4.443 12.461-5.316 4.419-.87 9.178-.82 14.016.337a33 33 0 0 1 12.61 6.03c1.708 1.32 5.697 4.103 12.976 7.574 7.734 3.688 18.495 7.723 32.685 10.736 16.706 3.546 37.781 5.615 63.737 4.117 21.813-1.256 46.956-5.011 75.69-12.468 44.586-11.563 78.53-13.107 103.932-10.083 16.575 1.973 29.846 5.93 40.27 10.445 8.131-7.872 19.134-16.245 33.948-23.968 22.818-11.9 55.162-22.54 100.798-27.506 21.61-2.353 40.887-5.93 58.037-10.314 19.261-4.92 35.321-10.701 48.684-16.802 15.865-7.237 28.199-14.96 37.668-22.176 13.853-10.559 21.026-19.627 24.138-24.237 2.793-4.139 6.254-7.411 10.101-9.85A34.5 34.5 0 0 1 709.451.373c4.18-.635 8.447-.45 12.646.5a34.5 34.5 0 0 1 11.623 5.02 34.4 34.4 0 0 1 9.864 10.097c2.52 3.96 4.294 8.422 5.04 13.281 3.566 23.212 2.903 44.706-.89 64.65-3.78 19.868-10.684 38.025-19.6 54.689-4.862 9.093-10.296 17.668-16.11 25.767l-1.348 1.864c35.712 20.429 67.854 46.501 95.211 77.003 27.947 31.155 50.846 66.878 67.417 105.863a94 94 0 0 1 3.372-.948c7.645-2.001 15.734-3.098 24.259-3.4 3.63-.131 7.095.273 10.268 1.122 3.464.93 6.719 2.36 9.597 4.191a21 21 0 0 1 2.19 1.587 33.5 33.5 0 0 1 4.522 4.032 34.2 34.2 0 0 1 5.093 7.095c2.122 3.94 3.407 8.266 3.83 12.727l.06.784a33 33 0 0 1-1.498 12.44c-.867 2.723-2.038 5.3-3.525 7.667a33.4 33.4 0 0 1-5.192 6.381c-.813.778-1.41 1.47-1.818 2.08-.273.405-.482.83-.631 1.256q-.075.221-.09.394" style="fill:#fff;fill-opacity:1;fill-rule:evenodd;stroke:none;stroke-width:3.54923"/><path d="M521.753 742.555c129.252 0 234.67-105.419 234.67-234.67 0-129.252-105.418-234.668-234.67-234.668s-234.67 105.416-234.67 234.668c0 129.251 105.418 234.67 234.67 234.67" style="fill:#fff;fill-opacity:1;fill-rule:evenodd;stroke:none;stroke-width:3.54923"/><path d="M521.752 262.017c135.786 0 245.872 110.08 245.872 245.865 0 135.793-110.086 245.872-245.872 245.872S275.88 643.675 275.88 507.882c0-135.786 110.086-245.865 245.872-245.865m0-103.438c-192.612 0-349.303 156.698-349.303 349.303 0 192.609 156.69 349.31 349.303 349.31 192.612 0 349.303-156.701 349.303-349.31 0-192.605-156.69-349.303-349.303-349.303" style="fill:#060202;fill-opacity:1;fill-rule:evenodd;stroke:none;stroke-width:3.54923"/><path d="M561.73 454.897a72.5 72.5 0 0 1 13.036-2.932l-.909-.958c-2.48-2.886-5.671-5.771-8.809-8.203-6.559-5.107-12.976-6.25-14.449-8.213-3.879-5.174-14.037 1.36-3.623 6.453 2.055 1.008 4.127 3.908 5.685 5.65 2.723 3.056 5.942 5.597 9.069 8.203m164.176-62.811c1.934-4.234 3.957-8.224 6.016-11.861a250 250 0 0 0-7.635-11.748l-.07.007c-3.854.493-7.634 1.618-11.3 3.258a236 236 0 0 1 12.993 20.344m17.682 39.07a104 104 0 0 1 10.268-4.54 244 244 0 0 0-15.698-35.531c-2.04 4.05-4.018 8.44-5.874 13.022a233 233 0 0 1 11.304 27.049m12.241 93.475c3.614.774 7.34 1.232 11.127 1.399a250 250 0 0 0 .667-18.147c0-24.745-3.666-48.635-10.474-71.159a91 91 0 0 0-10.271 4.71c6.211 21.068 9.544 43.368 9.544 66.449 0 5.632-.203 11.215-.593 16.748m-9.984 53.118a233.3 233.3 0 0 0 8.994-42.477c3.63.71 7.347 1.15 11.105 1.338a245 245 0 0 1-7.463 37.91 403 403 0 0 1-12.636 3.229m-10.406 27.262a233 233 0 0 0 6.364-15.425 441 441 0 0 0 12.986-3.099 244 244 0 0 1-6.236 16.48 791 791 0 0 1-13.114 2.044m-342.421 99.108c36.961 24.298 81.199 38.43 128.733 38.43 48.522 0 93.604-14.725 131.02-39.95a107 107 0 0 1-8.309-4.947c-.579 3.152-1.52 3.855-3.833 5.746l-1.058.724c-2.062 2.357-9.175 6.275-13.338 7.663-2.793.93-6.875.742-8.969 1.622-2.974 1.246-7.226 1.52-6.257-2.694 1.207-2.42 4.124-1.647 6.587-1.86 1.594-.138 13.881-7.211 16.16-8.535l1.143-.664c1.526-1.36 3.758-2.378 5.82-4.586a114 114 0 0 1-7.687-6.072c-.855.862-2.119 2.637-2.772 3.425-9.281 11.205-23.286 9.607-25.91 10.278-1.486.384-2.349 1.558-4.833 1.25-3.724-.458-4.398-5.779-.611-6.318 3.986-.575.7 1.938 9.618-1.065 5.193-1.75 12.27-5.14 16.046-7.932l1.168-.618 2.662-1.682c-.06-.909-.07-1.328-.242-1.782-2.2-2.115-4.33-4.33-6.395-6.63q-.317-.149-.621-.245c-1.338.82-1.988 2.204-3.066 3.24-1.143 1.097-2.258 2.027-3.518 2.893-2.804 1.935-5.604 3.116-8.83 3.983-10.13 2.704-12.692-.611-17.012.631-1.906.55-3.34.21-4.617-1.05-2.95-2.9 1.515-6.102 5.444-4.728 3.191 1.122 7.067-.263 10.304-1.136 6.59-1.785 11.982-4.571 18.35-6.743a4.7 4.7 0 0 0-.16-1.186 145 145 0 0 1-7.372-9.788c-.177-.1-.349-.181-.507-.239-.913.394-2.428 2.088-3.415 2.858-1.143.883-2.577 1.721-3.911 2.449-2.875 1.561-6.96 2.64-10.02 2.825-11.063.674-11.992-3.982-16.035-2.69-2.14.685-3.25.56-4.681-.81-3.457-3.315.567-7.002 4.166-5.558.995.401 1.076.813 2.105 1.04.71.152 2.29.107 3.084.096 1.992-.019 4.068-.03 6.027-.26 8.128-.96 16.337-4.361 19.883-4.709a169 169 0 0 1-7.77-13.58c-.954.728-2.57 2.255-4.564 3.422-1.75 1.026-4 2.09-6.253 2.68-7.635 2.009-12.31.983-18.45-2.275-1.604-.856-.986-1.047-2.885-1.725-3.113-1.115-4.408.185-6.381-2.46-2.038-2.726-.317-4.727 1.781-5.37 2.57-.788 4.178 1.68 5.509 3 8.859.29 20.51-.537 29.004-1.775a199 199 0 0 1-3.727-8.217l4.792-.624q.957 2.193 1.952 4.344c.32.405.636.692.93.83 1.316-.759 1.344-1.444 2.509-2.402l.898-.976c.203-.366 1.207-1.626 2.26-2.872 4.679-.575 9.364-1.132 14.045-1.671a29 29 0 0 1-2.467 3.396c-5.93 7.042-11.336 6.73-15.83 8.245-.01.1 0 .22.02.362a178 178 0 0 0 2.793 5.367 166 166 0 0 0 5.643 9.629c5.111-2.314 17.459-24.39 19.255-25.171 5.036-2.187 8.585 3.964 4.536 7.315-2.478 2.051-.951.503-2.815 6.385-1.796 5.664-4.71 7.634-9.554 10.576l-1.061.664c-1.715 1.026-6.662 2.602-8.1 3.695a141 141 0 0 0 8.934 11.922c2.736-2.307 10.449-15.12 12.638-18.666 2.51-4.064 3.276-7.737 6.215-9.7 2.044-1.37 3.94-1.178 5.242.983 1.352 2.25.681 3.823-1.473 5.111l-.936.795c-.458 6.02-2.772 11.095-6.605 15.56a27.8 27.8 0 0 1-5.821 5.129c-.93.617-2.549 1.458-3.77 1.923-1.078.419-2.615.522-3.733.923a123 123 0 0 0 8.766 9.054c.476.053 1.004.085 1.587.088 1.27-2.016 2.69-3.545 4.426-6.122l7.996-13.267c1.001-1.888 2.25-6.215 3.62-6.999 2.652-1.53 6.648 1.48 5.108 4.37-.849 1.596-1.488.695-1.885 3.449-1.107 7.73-3.61 12.617-9.448 16.994l-1.182.646c-1.618 1.764-5.87 2.587-6.988 3.63a1 1 0 0 1 .05.139 109 109 0 0 0 7.187 5.678c.714.124 1.487.17 2.353.15 3.564-4.352 7.557-12.043 9.903-17.885 1.444-3.603 1.6-6.062 2.367-6.882 3.333-3.55 7.592.291 4.557 4.202-1.558 2.005-1.302 11.262-6.722 16.053l-.746 1.022c-1.902 2.173-4.024 4.362-7.78 5.729 0 .117.005.224.005.32q4.737 3.105 9.806 5.668a236 236 0 0 0 30.59-25.785 235.5 235.5 0 0 0 42.102-57.256 960 960 0 0 0 13.54-1.995c-39.727 82.36-124.02 139.183-221.581 139.183-51.066 0-98.495-15.57-137.802-42.222a374 374 0 0 1 9.068-7.41m-71.786-74.275a235.7 235.7 0 0 0 62.665 67.964 388 388 0 0 0-8.876 7.372 247.2 247.2 0 0 1-65.072-72.397 451 451 0 0 1 11.283-2.939m-32.954-145.766a237 237 0 0 0-1.193 23.804c0 18.321 2.101 36.156 6.076 53.27l-1.998 14.077c-.657 5.217-.809 9.448-.28 12.546.652 3.823 2.793 3.042 5.078 2.694a34 34 0 0 0 5.566-1.363 233 233 0 0 0 12.457 27.968c-.461.217-.915.444-1.38.653a134 134 0 0 1-8.99 3.666c-17.708-33.958-27.73-72.563-27.73-113.51 0-7.4.34-14.723.986-21.953zm14.779-61.448a36 36 0 0 0-3.493-3.787 10.6 10.6 0 0 0-4.465-2.47q-.747-.2-1.487-.295a244.3 244.3 0 0 0-15.531 58.896l11.57-1.878a233 233 0 0 1 13.406-50.466m36.645-62.825c-3.691-1.657-7.492-2.946-11.315-3.79a246 246 0 0 0-30.505 50.09 21.2 21.2 0 0 1 8.919 4.962c.267.245.522.507.78.763a234.7 234.7 0 0 1 32.121-52.025m309.123-42.7a132 132 0 0 1 4.355-3.663 235.8 235.8 0 0 1 53.26 49.643c3.541-1.764 7.208-3.148 10.973-4.092-44.915-58.931-115.839-96.975-195.657-96.975-74.268 0-140.851 32.926-185.933 84.986a71 71 0 0 1 6.914 2.534 74 74 0 0 1 4.11 1.902 238 238 0 0 1 8.972-9.49c42.466-42.463 101.135-68.731 165.937-68.731 46.952 0 90.682 13.792 127.363 37.54-4.223 3.471-8.276 7.255-12.166 11.318h-.004c-1.186-2.534.461-11.51-6.758-16.613-1.345-.952-3.244-1.999-4.916-2.549-3.144-1.047-.252-.898-2.19-2.832-2.15-2.144-7.393-1.445-6.853 2.665.479 1.14 2.733 1.353 6.21 4.37.853.734 1.204 1.174 1.903 1.994 3.741 4.383 5.647 7.915 8.493 13.164.537.98 1.108 1.835 1.363 2.758a167 167 0 0 0-8.344 9.977l-.27-1.48c-.08-2.719-1.806-7.73-3.151-10.101-1.846-3.255-3.564-5.306-6.137-7.177l-1.175-.653c-.905-.841-1.739-1.146-3.006-1.668-2.222-.926-1.001-.87-2.367-2.616-1.91-2.452-5.054-2.1-6.822-.06-.404 1.959.352 3.996 1.572 4.93 2.169 1.647 2.797-1.53 9.68 10.544 2.022 3.56 5.146 9.672 7.357 12.824q.261.373.437.678a194 194 0 0 0-7.713 11.634c-1.104-2.64-2.236-10.392-10.07-17.498l-1.469-1.075c-1.135-1.902-5.433-3.606-7.105-5.377-4.351-4.61-11.634 1.253-5.934 5.246 6.069 4.248 10.24 11.403 14.477 17.416 1.771 2.512 3.148 4.834 5.256 7.488.27.345.5.629.689.884a232 232 0 0 0-6.765 12.98c-.646.4-1.388.685-2.258.837-2.615-9.48-9.334-16.642-16.429-20.756-2.193-1.274-3.006-3.368-5.672-3.69-2.743-.334-5.412 1.217-5.249 3.97.203 3.344 3.06 2.748 4.83 4.373.458.416 1.491 2.052 1.981 2.652.876 1.068 1.2 1.7 2.055 2.711l.725.951c1.7 2.733 3.978 5.605 6.072 8.362.855 1.122 7.603 9.86 8.724 12.146a282 282 0 0 0-4.962 12.557c-.738 1.409-1.402 2.577-1.781 2.96-1.182-.547-1.779-3.3-2.62-4.486l-.578-1.203-3.273-4.824-1.047-1.43c-2.669-3.29-6.58-6.701-11.627-9.157-1.168-.572-2.665-1.036-3.585-1.721-1.26-.941-4.251-3.606-6.931 0-4.153 5.586 2.676 5.345 4.76 8.166l8.993 10.836c1.338 1.487 8.082 8.873 9.934 10.268 2.265 1.7 3.095 2.797 3.23 3.886a320 320 0 0 0-4.745 16.59 1.6 1.6 0 0 1-.657.347c-1.722-1.451-2.51-10.104-21.569-20.088-1.324-.696-5.792-3.425-6.818-3.556-2.03-.256-9.075 4.138-1.625 7.705 2.484 1.192 8.031 7.755 10.935 10.7l6.853 6.258c3.429 3.07 6.811 4.33 10.655 7.06.011.262-.039.734-.139 1.366a332 332 0 0 0-1.891 8.88c-.614 2.637-1.225 5.228-1.619 7.027 6.854-.543 13.775-.008 20.387 1.874q.5-.398 1.022-.77a24 24 0 0 1 10.215-4.135l5.515-.859c-7.56-4.628-17.608-4.29-25.781-.308-1.133.546-4.082 2.392-6.2 3.382a343 343 0 0 1 4.915-22.548c4.064.163 9.345 1.285 13.164 1.831 4.475.64 9.664 1.487 13.906 2.02 3.425.426 3.332 1.728 5.707 2.055 2.42.334 4.174-1.665 4.514-3.592.43-2.435-1.913-3.553-3.552-4.497-1.991-1.136-3.07-2.101-4.888-3.166l-1.089-.642c-14.066-8.248-21.813-.465-26.687 1.803a314 314 0 0 1 6.386-20.947c1.412.259 3.293.95 4.78 1.238l17.342 4.898c1.98.547 3.868 1.062 5.604 1.58 1.998.596 3.091 2.307 4.994 2.48 2.616.232 6.988-3.538 1.004-7.967l-.962-.88c-1.782-1.882-3.634-3.227-5.941-4.82-2.974-2.066-4.909-2.109-8.018-3.308-5.409-2.101-13.796 1.054-17.185 2.204 2.473-6.797 5.16-13.41 8.074-19.79 4.902.482 13.338 5.568 17.952 7.694l9.011 4.469c2.066 1.079 6.39 5.831 8.409.425 1.267-3.375-3.798-5.909-5.289-7.474l-4.986-5.296c-4.75-4.198-11.908-5.93-18.371-4.653-1.349.267-3.712 1.143-5.076 1.267a229 229 0 0 1 8.739-16.61c4.73.483 11.006 4.955 15.027 7.617 1.459.958 3.397 2.484 4.944 3.45l1.125.71c.412.656 3.975 3.41 4.632 3.616l.741 1.079c2.563 4.841 9.448 2.108 6.304-2.85l-6.783-9.856c-2.332-2.95-5.125-5.413-9.533-7.102-6.385-2.442-10.658-.6-14.161-.536 2.885-4.72 5.91-9.25 9.082-13.562 7.79-.248 18.467 12.504 22.655 16.689 1.895 1.877 3.563 7.616 7.61 4.436 3.97-3.134-1.012-5.899-2.02-8.571-4.167-11.077-11.205-17.146-24.529-16.075.019-.553.107-1.11.242-1.65a158 158 0 0 1 6.35-7.492c.17-.068.344-.132.514-.185 4.462-1.409 8.511 2.811 11.287 4.351l1.38 1.566c1.992.788 7.461 8.33 9.328 10.984 1.672 2.371 1.082 6.205 6.825 6.148 1.097-1.473 2.044-1.746 1.001-5.448-.646-.362-.43-.164-.734-.909-2.69-2.683-2.982-7.542-5.466-10.36l-.671-1.132-1.977-2.36-.969-.7c-1.785-1.817-3.911-3.098-6.81-4.422-4.004-1.831-7.419-1.878-8.846-2.502q.019-.107.05-.224a135 135 0 0 1 4.895-4.681c1.129-.529 1.956-.731 2.634-.692l-.937-.817m222.226 191.54c4.227-1.497 8.05-3.282 11.184-5.248-.447-36.56-6.371-71.826-16.973-105.015-3.258 2.549-6.243 5.548-8.947 9.033 9.575 31.833 14.747 65.554 14.747 100.468q0 .379-.012.763m-.362 15.01c.06-1.253.1-2.513.147-3.77 3.705-1.132 7.23-2.463 10.445-3.946a264 264 0 0 1-5.367 4.02 224 224 0 0 1-5.224 3.696m-4.774 44.052a348 348 0 0 0 3.93-30.782 247 247 0 0 0 11.808-8.035 361 361 0 0 1-3.457 33.188 470 470 0 0 1-12.28 5.63M280.865 760.614c-4.56.277-9.412.7-14.605 1.37l.695.703c65.274 65.277 155.403 105.706 254.799 105.706 99.395 0 189.524-40.429 254.801-105.706 50.254-50.257 85.778-115.247 99.467-187.853a518 518 0 0 1-12.55 5.537c-33.462 157.936-173.958 276.821-341.718 276.821-93.302 0-178.175-36.77-240.89-96.578m-65.595-85.301c15.148 27.62 33.926 52.975 55.68 75.438-4.33.426-8.895 1.012-13.725 1.817a362.4 362.4 0 0 1-51.091-70.608c3.01-2.3 6.055-4.51 9.136-6.647m-8.029-15.532a345 345 0 0 0 3.017 6.059 257 257 0 0 0-9.21 6.612 360 360 0 0 1-3.706-7.407 98 98 0 0 0 9.9-5.264M174.57 469.47a350 350 0 0 0-2.12 38.413c0 50.615 10.833 98.746 30.286 142.213a87 87 0 0 1-9.895 5.338c-20.294-45.06-31.592-95.012-31.592-147.551 0-13.509.753-26.847 2.205-39.971 3.872.266 7.584.787 11.116 1.558m347.18-310.89c-175.98 0-321.949 130.817-345.846 300.306a87 87 0 0 0-11.127-1.526c11.156-79.222 48.16-150.26 102.175-204.279 65.277-65.274 155.403-105.703 254.799-105.703 99.395 0 189.524 40.43 254.801 105.703 37.643 37.647 67.02 83.56 85.15 134.746a59.5 59.5 0 0 0-9.168 7.751c-46.87-137.68-177.44-236.998-330.783-236.998" style="fill:#c70000;fill-opacity:1;fill-rule:evenodd;stroke:none;stroke-width:3.54923"/><path d="M716.501 34.096c-.27-1.75-2.566-2.226-3.545-.763-10.982 16.259-58.389 73.074-192.013 87.62-118.295 12.88-130.114 63.413-130.114 63.413s-28.951-43.07-144.134-13.189c-138.14 35.837-202.273-7.333-213.02-15.673-.568-.44-1.37.092-1.229.798 15.472 79.212 76.479 113.178 129.895 134.835 63.925 25.906 198.813 25.679 220.956 136.964 9.257 46.513 5.711 60.433-7.403 106.115l151.892-20.181c-22.59-30.25-37.38-67.407-43.528-104.425-18.594-111.932 107.478-159.502 158.075-206.38 41.746-38.683 86.161-91.218 74.168-169.134" style="fill:#060202;fill-opacity:1;fill-rule:evenodd;stroke:none;stroke-width:3.54923"/><path d="M716.501 34.096c-.27-1.75-2.566-2.226-3.545-.763-10.982 16.259-58.389 73.074-192.013 87.62-118.295 12.88-130.114 63.413-130.114 63.413s-28.951-43.07-144.134-13.189c-138.14 35.837-202.273-7.333-213.02-15.673-.568-.44-1.37.092-1.229.798 15.472 79.212 76.479 113.178 129.895 134.835 63.925 25.906 198.813 25.679 220.956 136.964 9.257 46.513 5.711 60.433-7.403 106.115l151.892-20.181c-22.59-30.25-37.38-67.407-43.528-104.425-18.594-111.932 107.478-159.502 158.075-206.38 41.746-38.683 86.161-91.218 74.168-169.134m5.402-10.57c2.89 1.938 5.069 4.976 5.668 8.905 6.407 41.622-2.282 76.518-18.157 106.196-15.4 28.788-37.473 52.305-58.896 72.213a11 11 0 0 1-.572.571c-12.66 11.734-29.31 23.159-47.293 35.496-53.796 36.915-120.375 82.604-107.37 160.91a242 242 0 0 0 15.296 53.218c6.872 16.479 15.627 32.18 26.176 46.306l-.02.015a11.1 11.1 0 0 1 2.123 5.235c.8 6.112-3.513 11.716-9.625 12.515L378.15 545.18a11.1 11.1 0 0 1-5.317-.199c-5.945-1.689-9.391-7.882-7.702-13.827 6.41-22.328 10.481-36.866 11.741-50.687 1.252-13.75-.131-27.982-4.554-50.222-15.479-77.781-93.96-96.897-157.363-112.343-21.288-5.186-40.997-9.984-56.815-16.394-27.603-11.19-57.26-25.643-82.367-47.847-25.47-22.52-45.888-52.66-54.214-94.743l-.101-.43a11.76 11.76 0 0 1 1.6-8.667q.3-.486.65-.944a12 12 0 0 1 4.249-3.478c.915-.468 1.91-.82 2.97-1.026 3.152-.624 6.584-.014 9.573 2.293 4.855 3.77 21.87 15.432 54.228 22.303 33.317 7.074 82.122 8.792 149.16-8.6 83.162-21.572 125.227-5.92 143.747 6.464 12.94-18.155 46.743-47.698 132.123-56.997 48.887-5.32 85.763-16.38 113.294-28.944 44.738-20.412 64.29-44.44 70.623-53.817l.019.014c2.232-3.307 5.49-5.146 8.908-5.671a13.2 13.2 0 0 1 4.767.156l-.004.035.05.008c1.587.35 3.12.99 4.486 1.909M703.038 240.368l-16.017 29.146q-2.72 4.947-4.103 6.818c-.934 1.218-2.265 2.282-3.993 3.16a10.3 10.3 0 0 1-5.53 1.142c-1.959-.131-4.007-.78-6.119-1.942-2.342-1.291-4.173-2.853-5.5-4.699-1.321-1.852-2.042-3.712-2.173-5.579-.128-1.863.149-3.62.838-5.242.671-1.626 2.37-4.891 5.072-9.814l14.179-25.82 10.2 5.61-17.962 32.696c-1.054 1.913-1.626 3.18-1.729 3.812-.11.636.124 1.097.696 1.406.643.355 1.22.301 1.728-.178.507-.486 1.36-1.81 2.545-3.978l17.654-32.15zM729.675 259.04l-23.996 31.77 5.647 4.262-6.006 7.944-14.945-11.301 30.015-39.687zM756.177 303.55l-7.631-7.66 2.616-2.608c1.217-1.21 1.895-2.095 2.037-2.613.135-.532-.012-1.022-.472-1.47-.497-.496-1.09-.656-1.793-.468q-1.063.296-2.434 1.665c-1.182 1.16-1.92 2.197-2.24 3.07-.312.877-.26 2.36.17 4.48q1.852 9.126.948 12.886c-.607 2.495-2.64 5.47-6.101 8.912-2.506 2.496-4.621 4.079-6.34 4.732-1.717.65-3.737.624-6.054-.089-2.31-.71-4.472-2.076-6.47-4.096-2.204-2.204-3.62-4.553-4.238-7.045-.625-2.495-.462-4.678.497-6.609.958-1.902 2.758-4.166 5.402-6.807l2.307-2.303 7.623 7.67-4.294 4.273c-1.31 1.306-2.055 2.26-2.222 2.864-.163.578.04 1.146.579 1.714.55.543 1.196.714 1.937.5.753-.205 1.59-.777 2.53-1.72 2.08-2.07 3.184-3.678 3.32-4.82.113-1.165-.09-3.51-.64-7.053-.529-3.56-.791-6.005-.777-7.35.019-1.342.425-2.836 1.185-4.476.778-1.64 2.09-3.39 3.972-5.253 2.697-2.697 4.983-4.33 6.857-4.961 1.86-.622 3.844-.593 5.927.095 2.077.678 4.089 2.005 6.044 3.968 2.134 2.14 3.571 4.344 4.306 6.63.724 2.272.755 4.234.07 5.895-.674 1.647-2.42 3.869-5.22 6.666zM792.668 325.664l-36.359 34.622-6.991-9.621 6.87-5.757-2.437-3.38-7.656 4.682-7.077-9.742 43.769-24.422zm-29.526 13.803c4.23-3.787 9.515-8.348 15.875-13.71q-12.605 6.967-18.221 10.47zM818.041 370.055l-44.29 22.698-4.654-9.09 17.37-15.705-20.127 10.317-4.44-8.677 44.283-22.687 4.44 8.664-16.954 16.042 19.943-10.222zM378.878 739.914l10.172 5.636c3.213 1.771 5.484 3.404 6.833 4.863 1.352 1.476 2.065 3.34 2.147 5.604.08 2.25-.937 5.26-3.013 9.03-1.41 2.54-2.751 4.116-4.022 4.716-1.28.61-3.126.593-5.53-.034 2.024 1.895 3.081 3.762 3.16 5.604q.12 2.754-2.233 7l-2.243 4.046c-1.63 2.942-3.13 4.954-4.522 6.037-1.395 1.072-2.896 1.519-4.5 1.302q-2.433-.316-8.575-3.73l-11.787-6.516zm-3.056 29.565-6.74 12.174c1.463.742 2.517.997 3.16.78.645-.233 1.458-1.238 2.43-2.995l2.25-4.053c1.026-1.867 1.488-3.098 1.346-3.691-.135-.582-.955-1.327-2.446-2.215m9.126-16.465-5.363 9.686c.443.22.795.394 1.025.533 1.004.546 1.796.628 2.375.234.578-.397 1.572-1.878 3.01-4.476.752-1.352 1.17-2.374 1.245-3.041.07-.668-.019-1.175-.309-1.523-.284-.348-.948-.813-1.984-1.413M432.44 765.266l-11.6 48.869-11.115-4.263 2.619-8.578-3.89-1.491-3.851 8.096-11.244-4.302 23.358-44.369zm-17.221 27.673c1.47-5.473 3.41-12.195 5.835-20.153-4.533 8.469-7.716 14.715-9.576 18.715zM468.742 790.708l-10.537-2.474.84-3.592c.398-1.686.512-2.772.356-3.29-.163-.525-.56-.859-1.185-1.012-.679-.163-1.278.03-1.768.565-.49.543-.89 1.43-1.189 2.697-.376 1.622-.462 2.882-.27 3.784.191.915 1.019 2.154 2.517 3.72 4.27 4.517 6.8 8 7.62 10.434.813 2.445.65 6.044-.462 10.786-.81 3.464-1.768 5.917-2.879 7.39-1.114 1.469-2.85 2.505-5.181 3.12-2.35.624-4.909.603-7.663-.04-3.031-.71-5.484-1.959-7.326-3.74q-2.775-2.675-3.073-5.87c-.192-2.134.127-5.009.976-8.647l.748-3.17 10.527 2.467-1.38 5.903c-.423 1.81-.554 3.002-.38 3.602q.274.884 1.399 1.143c.76.18 1.387-.019 1.913-.593.529-.568.936-1.5 1.242-2.804.664-2.853.752-4.805.267-5.842-.523-1.047-1.942-2.924-4.277-5.643-2.343-2.733-3.851-4.685-4.55-5.838-.693-1.147-1.14-2.634-1.367-4.419-.202-1.8-.011-3.99.6-6.559.862-3.705 1.92-6.321 3.184-7.847 1.256-1.509 2.945-2.52 5.086-3.056 2.122-.518 4.532-.469 7.23.17 2.945.689 5.327 1.814 7.155 3.344 1.83 1.565 2.889 3.219 3.187 4.972.295 1.764-.004 4.575-.909 8.43zM484.811 777.984l19.33 1.988-1.03 9.923-7.73-.805-.97 9.387 7.23.742-.968 9.434-7.244-.753-1.115 10.89 8.497.876-1.019 9.903-20.092-2.077zM516.427 780.653l11.624-.341q5.493-.16 8.362.703c1.902.589 3.467 1.824 4.685 3.726 1.217 1.903 1.895 5.005 2.016 9.306.08 2.91-.263 4.952-1.047 6.116-.788 1.164-2.385 2.09-4.778 2.782 2.712.6 4.568 1.658 5.57 3.198 1.007 1.548 1.554 3.936 1.66 7.184l.124 4.607c.103 3.364-.177 5.866-.813 7.492-.66 1.654-1.721 2.793-3.209 3.432-1.494.643-4.592 1.022-9.274 1.16l-13.469.402zm12.43 26.977.422 13.924c1.64-.11 2.68-.42 3.106-.94.44-.533.627-1.8.567-3.81l-.131-4.642c-.06-2.14-.302-3.417-.717-3.847-.42-.44-1.495-.674-3.248-.685m-.54-18.804.335 11.067c.486-.044.884-.057 1.15-.072 1.147-.034 1.87-.362 2.162-.997q.434-.96.316-5.37c-.04-1.562-.21-2.658-.49-3.276-.281-.603-.62-.994-1.036-1.153-.433-.146-1.225-.22-2.435-.2M575.304 775.133l15.006 47.921-11.734 2.027-2.14-8.72-4.106.71.827 8.933-11.869 2.037-2.577-50.065zm-.66 32.585c-1.54-5.455-3.3-12.22-5.3-20.29.445 9.582.895 16.574 1.35 20.968zM602.892 767.863l11.567 38.112 6.776-2.066 2.903 9.537-17.927 5.451-14.463-47.64zM630.978 757.245l15.702 36.6 6.506-2.794 3.918 9.157-17.214 7.376-19.62-45.75zM715.407 728.967l-9.093 7.294-5.416-6.751c-1.569-1.952-2.644-3.102-3.23-3.432-.585-.327-1.214-.242-1.878.298-.745.603-.986 1.281-.706 2.03.277.756 1.196 2.12 2.776 4.082l14.466 18.026c1.512 1.892 2.62 3.046 3.273 3.454.664.415 1.348.334 2.048-.23.688-.53.89-1.183.635-1.921-.26-.752-1.235-2.186-2.938-4.32l-3.926-4.869 9.086-7.3 1.225 1.518c3.215 4.018 5.249 7.056 6.09 9.154.834 2.094.883 4.468.16 7.14-.738 2.673-2.396 5.027-4.948 7.078-2.662 2.147-5.284 3.372-7.875 3.68-2.577.313-4.916-.252-6.996-1.692-2.08-1.434-4.646-4.075-7.709-7.869l-9.1-11.34c-2.243-2.793-3.847-4.965-4.784-6.498-.96-1.544-1.526-3.301-1.7-5.285q-.279-2.981 1.104-5.913c.92-1.966 2.36-3.734 4.337-5.313 2.676-2.162 5.338-3.358 8.01-3.6 2.659-.244 4.955.264 6.875 1.548 1.924 1.26 4.348 3.73 7.255 7.35zM718.83 695.025l28.72 27.578 4.916-5.104 7.187 6.903-12.994 13.505-35.896-34.48zM746.755 660.305l26.74 19.79c3.034 2.24 5.096 3.915 6.185 4.998 1.1 1.086 1.974 2.541 2.634 4.376a10.35 10.35 0 0 1 .37 5.632c-.39 1.931-1.303 3.859-2.74 5.807-1.59 2.154-3.39 3.748-5.402 4.81-2.012 1.06-3.947 1.532-5.824 1.412-1.867-.128-3.56-.625-5.086-1.523-1.509-.894-4.536-3.013-9.05-6.353l-23.688-17.515 6.931-9.37 30.016 22.196c1.746 1.292 2.918 2.034 3.542 2.222.607.195 1.108.034 1.494-.49.437-.6.444-1.17.04-1.739-.41-.56-1.616-1.593-3.6-3.066l-29.504-21.81zM753.326 649.936l5.505-10.232q2.602-4.864 4.788-6.907c1.452-1.374 3.297-2.094 5.558-2.208 2.257-.113 5.288.863 9.068 2.896 2.57 1.374 4.16 2.701 4.781 3.965.625 1.26.628 3.109.019 5.526 1.867-2.052 3.73-3.127 5.558-3.233 1.835-.107 4.195.617 7.049 2.154l4.06 2.169q4.44 2.402 6.09 4.454c1.108 1.384 1.555 2.878 1.367 4.497-.195 1.607-1.405 4.482-3.62 8.61l-6.378 11.869zm13.022-6.233 9.746 5.24c.214-.445.395-.792.523-1.034.536-1.011.613-1.789.206-2.367-.402-.579-1.895-1.558-4.504-2.96-1.366-.742-2.392-1.14-3.066-1.203-.672-.086-1.182.034-1.512.32-.338.29-.81.965-1.392 2.005m16.572 8.905 12.27 6.601c.716-1.48.961-2.541.72-3.187-.224-.632-1.232-1.43-3.007-2.378l-4.081-2.2c-1.888-1.008-3.116-1.441-3.706-1.292-.59.138-1.316.969-2.197 2.456" style="fill:#fff;fill-opacity:1;fill-rule:evenodd;stroke:none;stroke-width:3.54923"/><path d="M157.729 792.187c117.685-70.015 153.127-23.474 186.49-57.937 66.388-68.578 120.414-85.99 159.441-96.017 103.705-26.651 229.73-22.687 313.634-51.595 136.435-47.01 153.532-96.578 150.817-108.195-3.298-14.097-34.563-14.172-54.073-11.673a59 59 0 0 0-10.157 2.247c2.58-12.529-8.401-32.408-11.38-46.048-2.061-9.796.37-22.289 11.685-33.146 1.423-1.366-.177-3.318-2.133-3.247-24.419.869-42.417 10.282-53.129 33.057-8.24 17.462-24.915 59.045-34.225 69.504-6.928 7.777-15.975 11.723-26.14 13.136-7.418 1.033-13.519-1.49-16.844-8.398 15.971-2.743 32.27-10.125 44.273-21.015 11.23-10.193 12.724-29.67-1.296-37.518-7.861-4.405-17.501-5.949-26.477-5.434-26.229 1.498-63.797 15.68-68.798 45.146-.337 2.009-.53 11.773-.532 11.783-2.133 5.172-3.624 7.06-7.627 10.985-1.157 1.136-4.16 3.4-5.289 1.05-3.39-7.08.948-44.89 7.063-69.745 4.249-17.295 11.34-35.613 18.957-49.018 1.469-2.588 1.362-5.729-.284-8.188-1.679-2.499-4.55-3.816-7.493-3.436-27.329 3.5-50.86 38.715-56.39 63.584-4.578 20.61-5.614 46.871-11.29 65.703-1.668 5.527-7.127 13.406-12.099 16.604-1.437.93-2.307.926-1.984-.898 3.535-20.036 6.96-40.696 10.456-60.876l-41.654 6.473a13.31 13.31 0 0 0-9.717 6.91c-15.344-7.257-34.438-3.768-48.71 4.391-17.263 9.867-30.807 28.174-30.172 48.65l-.89 4.379c-1.072 5.239-6.545 10.62-10.623 12.497-.703.397-1.093-.37-.936-1.086 1.426-8.579 5.83-27.319 4.606-35.063-1.806-11.414-10.661-19.943-21.97-21.849-13.025-2.193-29.316 1.8-40.467 8.326l12.248-68.006-27.996 4.355c-13.441 2.09-24.092 12.5-26.485 25.898l-24.017 134.459 50.228-7.826 8.994-49.536c1.388-7.628 3.106-12.788 9.14-17.637 3.353-2.69 8.379-3.212 8.777-.61.808 5.324-1.324 11.013-2.158 16.145-2.354 9.803-3.784 21.416.49 30.967 12.02 27.436 57.021 12.178 70.892-10.46 19.208 21.374 50.267 15.188 68.074-4.166 16.33 18.13 51.119 4.532 63.108-13.494 17.122 25.604 55.159 5.92 66.342-15.908 22.598 24.887 68.926 17.097 92.88-1.98 15.804 9.33 45.37 3.968 59.726-5.278 8.238-5.302 12.074-11.982 17.405-15.968 5.658-4.227 9.942-5.143 12.337-5.448 4.703-.603 5.296 1.704 5.487 2.463 2.58 10.112-21.636 50.073-122.38 89.355-69.025 26.918-155.992 31.457-232.062 30.836-49.434-.398-100.521 3.265-149.525 9.547-98.083 12.568-229.393 32.018-288.172 175.669-3.918 9.58 1.367 20.82 32.025 2.58m-16.692-142.029c-12.614-11.947-18.257-28.27-18.357-46.225-.05-9.526 2.41-20.245 4.692-29.299 4.299-17.054 15.67-54.08 13.502-66.14-.704-3.928-2.34-6.988-4.838-9.224-3.428-3.06-9.033-2.502-13.026-1.583-7.9 1.821-14.924 6.9-19.772 14.297-5.441 8.315-12.387 32.422-1.15 41.142 5.845 4.532 13.327 4.472 22.896.1-5.743 15.3-12.923 25.955-24.39 32.76-24.107 14.303-50.591-14.751-43.869-48.004 8.305-41.075 52.98-65.025 86.977-69.38 49.952-6.403 83.524 21.476 66.786 81.17-4.238 15.11-15.41 45.597-13.143 60.926.483 3.259 1.661 5.196 4.703 4.742 7.762-1.157 14.218-12.323 17.604-19.17 2.612-5.273 9.111-18.916 12.82-31.403l12.475-41.976c5.239-17.615 8.82-32.454 23.911-35.66l35.6-5.784-13.3 93.78c-.653 5.218-.809 9.452-.277 12.55.65 3.823 2.79 3.039 5.076 2.694 9.803-1.487 22.722-8.684 28.294-20.986 16.476-36.369 12.997-130.015-17.455-158.42-10.069-9.39-26.974-6.938-30.381 5.584-8.06-25.15 9.888-51.017 27.17-58.701 23.534-10.467 54.22 7.66 67.115 28.596 38.402 62.374 28.259 192.34-58.1 231.185-18.826 8.469-44.835 15.198-64.086 2.989-4.518-2.868-8.4-6.517-11.595-10.879-8.681 15.688-16.135 26.254-22.165 31.432-19.989 17.108-51.197 30.222-73.717 8.888" style="fill:#c70000;fill-opacity:1;fill-rule:evenodd;stroke:none;stroke-width:3.54923"/><path d="M377.242 572.087c-9.835 16.738-22.672 31.52-38.757 42.97 25.65-5.292 50.778-8.66 74.058-11.641 25.65-3.287 51.676-5.86 77.525-7.507 24.383-1.558 48.986-2.321 73.416-2.122 37.579.305 77.89-.668 117.426-5.051 39.034-4.326 77.131-11.993 110.682-25.079 38.963-15.194 66.026-30.342 84.315-43.698a261 261 0 0 0 5.367-4.02c-8.458 3.903-19.063 6.757-29.494 7.68-9.633.848-19.393.081-27.699-2.946-14.25 9.423-33.405 15.63-51.9 16.024-14.424.31-28.596-2.846-40.156-10.605-3.989 4.621-8.795 8.856-14.04 12.362-7.124 4.763-15.198 8.309-23.304 9.796-8.82 1.619-17.722.856-25.725-3.244a36 36 0 0 1-4.958-3.077c-8.086 7.276-19.046 13.082-30.162 15.627-11.332 2.598-23.034 1.906-32.716-3.748-9.79 7.869-21.725 12.909-33.839 13.991-11.61 1.037-23.318-1.512-33.508-8.578-6.094 6.069-13.81 11.219-22.005 14.81-7.482 3.277-15.51 5.335-23.226 5.69-8.383.387-16.447-1.232-23.265-5.409-5.686-3.482-10.34-8.603-13.42-15.63l-.113-.27a39 39 0 0 1-1.08-2.773l-3.875 21.342c-.83 4.632-4.55 8.018-8.973 8.635l-50.075 7.801c-5.786.898-11.205-3.07-12.103-8.859a10.6 10.6 0 0 1 .04-3.485l-.04-.004zm-248.08-64.72-.199-.192c-.28-.248.09.146.192.33zm-4.28 35.247c3.503-13.69 6.467-27.166 5.555-32.245q-.238-1.319-.696-2.186a3.6 3.6 0 0 0-.578-.816l-.007.138c.03.053.04.088-.004.088-1.147-.064-2.545.167-3.773.45-2.527.583-4.951 1.712-7.162 3.312-2.304 1.665-4.37 3.844-6.077 6.453-2.424 3.698-5.242 11.645-5.448 19.063-.1 3.588.37 6.676 1.885 7.854 1.019.788 2.204 1.182 3.563 1.182 2.236.004 5.044-.784 8.437-2.332a10.6 10.6 0 0 1 4.305-.962m698.003-34.182c15.809 9.33 45.374 3.968 59.727-5.278 8.24-5.302 12.074-11.982 17.409-15.968 5.657-4.227 9.937-5.143 12.337-5.448 4.702-.603 5.295 1.704 5.483 2.463 2.58 10.108-21.636 50.073-122.38 89.355-69.022 26.918-155.992 31.457-232.059 30.836-49.433-.398-100.524 3.265-149.528 9.547-98.083 12.568-229.393 32.018-288.168 175.665-3.922 9.583 1.363 20.824 32.02 2.584 117.686-70.019 153.132-23.478 186.494-57.937 66.388-68.578 120.415-85.99 159.442-96.017 103.704-26.651 229.726-22.687 313.633-51.595 136.436-47.01 153.529-96.581 150.814-108.195-3.298-14.097-34.563-14.171-54.073-11.673a59 59 0 0 0-10.154 2.247c2.577-12.532-8.4-32.408-11.382-46.048-2.059-9.796.372-22.289 11.684-33.146 1.427-1.37-.177-3.318-2.13-3.247-24.422.866-42.42 10.278-53.132 33.057-8.24 17.462-24.911 59.045-34.225 69.504-6.924 7.777-15.971 11.723-26.136 13.136-7.421 1.033-13.523-1.49-16.848-8.398 15.971-2.743 32.27-10.125 44.273-21.018 11.23-10.19 12.727-29.668-1.292-37.519-7.862-4.4-17.505-5.945-26.477-5.434-26.229 1.502-63.801 15.684-68.798 45.15-.342 2.009-.533 11.77-.537 11.783-2.13 5.172-3.623 7.06-7.623 10.985-1.157 1.136-4.164 3.4-5.289 1.047-3.39-7.077.948-44.887 7.06-69.742 4.248-17.295 11.34-35.613 18.956-49.018 1.473-2.591 1.367-5.729-.28-8.192-1.68-2.495-4.55-3.812-7.493-3.435-27.329 3.503-50.86 38.718-56.39 63.587-4.582 20.607-5.618 46.871-11.293 65.704-1.669 5.526-7.127 13.405-12.1 16.603-1.437.926-2.307.926-1.984-.902 3.539-20.035 6.96-40.691 10.46-60.872l-41.654 6.473a13.3 13.3 0 0 0-9.721 6.91c-15.343-7.257-34.435-3.768-48.706 4.391-17.267 9.867-30.81 28.174-30.172 48.65l-.894 4.379c-1.072 5.239-6.545 10.62-10.623 12.497-.703.398-1.093-.373-.934-1.086 1.427-8.582 5.828-27.319 4.604-35.063-1.807-11.414-10.659-19.943-21.967-21.849-13.025-2.193-29.316 1.8-40.468 8.327l12.245-68.01-27.993 4.354c-13.44 2.09-24.092 12.5-26.484 25.899l-24.021 134.462 50.232-7.826 8.994-49.536c1.384-7.628 3.102-12.788 9.14-17.636 3.353-2.694 8.379-3.213 8.773-.614.813 5.327-1.32 11.016-2.158 16.148-2.353 9.803-3.78 21.413.49 30.967 12.021 27.432 57.025 12.178 70.895-10.46 19.209 21.37 50.264 15.184 68.07-4.166 16.334 18.13 51.12 4.532 63.113-13.494 17.118 25.604 55.155 5.92 66.338-15.908 22.602 24.887 68.93 17.097 92.88-1.98m-681.85 141.728c22.523 21.334 53.727 8.22 73.716-8.888 6.034-5.181 13.484-15.744 22.169-31.431 3.194 4.362 7.077 8.01 11.592 10.878 19.254 12.21 45.26 5.48 64.088-2.988 86.356-38.847 96.503-168.812 58.097-231.186-12.89-20.937-43.577-39.062-67.116-28.596-17.28 7.684-35.23 33.55-27.166 58.7 3.404-12.52 20.313-14.973 30.382-5.582 30.452 28.404 33.927 122.047 17.451 158.42-5.572 12.3-18.491 19.498-28.29 20.982-2.29.348-4.426 1.132-5.08-2.69-.529-3.102-.376-7.333.281-12.55l13.3-93.781-35.6 5.785c-15.09 3.205-18.675 18.044-23.91 35.655l-12.476 41.98c-3.709 12.487-10.208 26.13-12.82 31.404-3.39 6.846-9.845 18.012-17.607 19.17-3.039.454-4.22-1.484-4.703-4.742-2.265-15.33 8.905-45.817 13.143-60.926 16.738-59.698-16.834-87.574-66.782-81.174-34.002 4.358-78.676 28.308-86.981 69.383-6.722 33.253 19.765 62.307 43.872 48.003 11.467-6.803 18.644-17.458 24.39-32.762-9.569 4.372-17.054 4.433-22.896-.096-11.237-8.72-4.291-32.827 1.15-41.143 4.845-7.396 11.872-12.475 19.769-14.296 3.993-.92 9.597-1.48 13.026 1.583 2.502 2.236 4.134 5.295 4.84 9.224 2.166 12.057-9.206 49.082-13.5 66.136-2.283 9.054-4.746 19.773-4.693 29.303.101 17.955 5.743 34.278 18.353 46.225m-7.318 7.694c-7.265-6.882-12.586-15.006-16.152-23.989-3.678-9.256-5.43-19.36-5.488-29.888-.02-4.656.416-9.33 1.118-13.877a58 58 0 0 1-7.194 5.036c-8.33 4.94-16.993 6.169-25.196 4.511-5.785-1.168-11.205-3.773-15.985-7.514-4.575-3.58-8.575-8.18-11.738-13.508-6.821-11.5-9.984-26.747-6.754-42.722 4.295-21.249 16.852-38.338 32.845-51.094 18.87-15.053 42.782-24.114 63.2-26.73 14.247-1.824 27.411-1.114 38.836 2.091 11.787 3.304 21.789 9.25 29.366 17.789 7.56 8.514 12.522 19.446 14.222 32.72 1.548 12.089.365 26.104-4.078 41.962-.78 2.783-1.973 6.637-3.283 10.875-2.815 9.111-6.264 20.266-8.224 29.856l.916-1.8c1.25-2.526 3.436-7.059 5.75-12.457 2.289-5.342 4.699-11.492 6.406-17.242l13.295-44.752c5.814-19.72 10.595-35.94 31.077-40.287q.475-.1.944-.156l35.152-5.711c5.788-.94 11.247 2.988 12.188 8.777.174 1.072.18 2.137.04 3.159l-13.27 93.614h.01l-.135 1.129a31 31 0 0 0 5.06-3.05c3.284-2.434 6.162-5.618 7.912-9.48 8.092-17.862 10.857-51.516 7.358-83.303-2.957-26.85-10.244-51.673-22.357-62.97a10.7 10.7 0 0 0-4.468-2.467c-1.63-.443-3.262-.49-4.707-.149-1.146.266-2.126.76-2.775 1.459-.402.43-.72 1.011-.923 1.75-1.537 5.675-7.386 9.025-13.057 7.485a10.64 10.64 0 0 1-7.592-7.904c-4.224-14.002-2.115-27.972 3.404-39.9 6.576-14.208 18.264-25.725 29.817-30.861 13.945-6.2 29.426-4.703 43.474 1.285 15.219 6.484 29.018 18.48 36.99 31.432a128 128 0 0 1 7.702 14.555c6.3 14.009 10.743 30.09 13.139 47.151a42.64 42.64 0 0 1 11.269-19.002 42.42 42.42 0 0 1 23.169-11.581l27.993-4.355c5.788-.895 11.208 3.073 12.106 8.859a10.6 10.6 0 0 1-.09 3.744l-8.81 48.912a82 82 0 0 1 4.327-1.015c8.078-1.661 16.464-2.094 24.056-.816 7.9 1.33 14.967 5.022 20.37 10.392a36.5 36.5 0 0 1 6.335 8.447c6.466-10.42 15.794-19.145 26.25-25.121 8.738-4.994 19.13-8.49 29.714-9.452 7.102-.642 14.285-.138 21.139 1.81a23.977 23.977 0 0 1 11.237-4.905l41.653-6.477a10.7 10.7 0 0 1 3.848.11c.68-4.249 1.437-8.419 2.335-12.444 3.368-15.159 12.646-33.664 25.26-47.89 11.07-12.482 24.919-21.98 40.156-23.932 3.464-.447 6.9.11 9.959 1.512a18.57 18.57 0 0 1 7.68 6.538 18.4 18.4 0 0 1 3.099 9.622c.116 3.329-.681 6.69-2.4 9.718-3.563 6.267-7.016 13.724-10.086 21.657-3.074 7.954-5.764 16.411-7.791 24.656-1.377 5.612-2.665 11.9-3.783 18.332 4.376-5.448 9.788-10.133 15.825-14.094 15.706-10.31 35.968-15.673 52.249-16.603 5.511-.313 11.29.039 16.93 1.196 5.384 1.104 10.608 2.924 15.328 5.569a30.6 30.6 0 0 1 7.706 6.1 30 30 0 0 1 2.594 3.309l1.27-2.89c2.904-6.594 5.52-12.542 7.852-17.486l.29-.565c6.283-13.1 14.762-22.463 25.292-28.752 10.524-6.282 22.811-9.317 36.78-9.81 2.83-.103 5.53.72 7.703 2.098l.019-.034a13.1 13.1 0 0 1 4.486 4.816c.235.43.433.873.6 1.32.869 2.165 1.128 4.55.613 6.981q-.134.604-.32 1.175c-.599 1.881-1.657 3.635-3.233 5.15-3.94 3.78-6.417 7.737-7.772 11.57-1.463 4.153-1.608 8.189-.89 11.677l.018-.004c.902 4.132 2.74 9.19 4.639 14.414 2.502 6.889 5.097 14.026 6.431 20.954 12.06-1.444 27.922-1.923 40.202.728 12.26 2.644 21.778 8.447 24.295 19.212 2.207 9.44-3.795 36.738-45.643 66.757-23.56 16.902-59.095 35.66-112.074 53.913-45.618 15.72-102.7 21.867-162.029 28.259-51.481 5.543-104.688 11.276-152.439 23.549-18.818 4.834-41.267 11.457-67.09 25.178-25.86 13.739-55.074 34.612-87.361 67.964-16.823 17.38-32.816 17.792-55.645 18.378-27.435.702-66.484 1.707-133.05 41.309-12.819 7.627-22.32 10.772-29.092 11.162-5.288.306-9.533-.94-12.83-3.212-3.933-2.708-6.134-6.53-6.932-10.882-.76-4.131-.08-8.66 1.608-12.795 30.597-74.775 80.095-117.237 134.71-142.643a318 318 0 0 1 12.965-5.678c-7.23-1.083-14.253-3.472-20.748-7.589a50 50 0 0 1-3.702-2.587q-2.928 4.74-5.58 8.493c-4.198 5.956-8.17 10.549-11.879 13.732-12.521 10.719-29.16 20.067-46.129 22.112-14.57 1.757-29.217-1.668-41.81-13.597" style="fill:#fff;fill-opacity:1;fill-rule:evenodd;stroke:none;stroke-width:3.54923"/><path d="m894.498 492.424.004-.004c17.42-20.898 33.047-30.452 60.266-24.5 6.97 1.948 12.11 5.256 13.342 10.527 2.715 11.613-14.378 61.185-150.814 108.194-83.892 28.905-209.936 24.955-313.63 51.595-39.027 10.03-93.053 27.436-159.445 96.017-33.366 34.463-68.809-12.081-186.493 57.937-30.659 18.24-35.943 7-32.022-2.583 58.78-143.648 190.086-163.098 288.169-175.665 49.007-6.282 100.095-9.945 149.528-9.548 76.067.622 163.037-3.918 232.058-30.835 100.745-39.283 124.961-79.244 122.381-89.355-.188-.76-.785-3.067-5.487-2.464-2.396.306-6.676 1.221-12.333 5.449-1.945 1.455-3.692 3.265-5.523 5.238" style="fill:#060202;fill-opacity:1;fill-rule:evenodd;stroke:none;stroke-width:3.54923"/><path d="M340.87 711.118c2.868 2.652 4.681 2.556 6.552 2.12-.714.94-1.012 1.128-3.95 3.74-7.234 6.325-22.315 11.911-32.231 14.413-3.638.92-6.584 1.424-8.192 1.388-5.966-.106-12.376-4.34-4.127-23.151 6.473-14.967 18.2-26.701 32.411-34.41 10.282-5.58 21-11.382 32.678-12.972 20.681-3.205 17.987 6.292 16.78 10.402-2.275 7.674-7.584 14.453-13.047 19.997-6.42 6.502-13.483 12.404-21.522 16.504zM587.421 475.48c7.61 3.425 7.592 19.95-.039 36.93-7.627 16.972-19.982 27.96-27.588 24.54-7.61-3.412-7.592-19.944.039-36.92 7.627-16.983 19.982-27.971 27.592-24.55M791.954 442.958c4.7 4.266 2.055 14.832-5.906 23.605-7.957 8.778-18.221 12.437-22.917 8.17-4.706-4.265-2.066-14.831 5.895-23.609 7.961-8.773 18.233-12.433 22.928-8.166M836.603 494.537c1.164.557 2.541.802 3.847.6 5.608-.863 9.548-2.925 12.228-6.212 2.637-3.226 3.389-7.524 2.598-13.2-.806-5.784-1.555-11.559-2.464-17.326-5.153 11.3-13.295 28.968-15.755 33.56-.755 1.406-1.76 1.95-.454 2.578" style="fill:#fff;fill-opacity:1;fill-rule:evenodd;stroke:none;stroke-width:3.54923"/></svg>